<?xml version="1.0" encoding="UTF-8"?>
<!DOCTYPE svg PUBLIC "-//W3C//DTD SVG 1.1//EN" "http://www.w3.org/Graphics/SVG/1.1/DTD/svg11.dtd">
<svg xmlns="http://www.w3.org/2000/svg" version="1.1" width="300px" height="200px" viewBox="0 0 604 263" style="shape-rendering:geometricPrecision; text-rendering:geometricPrecision; image-rendering:optimizeQuality; fill-rule:evenodd; clip-rule:evenodd" xmlns:xlink="http://www.w3.org/1999/xlink">
<g><path style="opacity:1" fill="#272627" d="M 53.5,-0.5 C 154.5,-0.5 255.5,-0.5 356.5,-0.5C 357.849,3.36323 359.683,7.0299 362,10.5C 362.49,11.7932 362.657,13.1266 362.5,14.5C 364.38,14.2291 365.713,14.8958 366.5,16.5C 273.5,16.5 180.5,16.5 87.5,16.5C 85.0299,15.1156 83.3633,13.1156 82.5,10.5C 77.7093,9.31581 73.0427,7.81581 68.5,6C 64.1177,5.54309 59.7843,5.54309 55.5,6C 54.6028,3.91293 53.9361,1.74627 53.5,-0.5 Z"/></g>
<g><path style="opacity:1" fill="#313031" d="M 356.5,-0.5 C 414.833,-0.5 473.167,-0.5 531.5,-0.5C 536.833,5.16667 542.167,10.8333 547.5,16.5C 487.167,16.5 426.833,16.5 366.5,16.5C 365.713,14.8958 364.38,14.2291 362.5,14.5C 362.657,13.1266 362.49,11.7932 362,10.5C 359.683,7.0299 357.849,3.36323 356.5,-0.5 Z"/></g>
<g><path style="opacity:1" fill="#242324" d="M 531.5,-0.5 C 555.5,-0.5 579.5,-0.5 603.5,-0.5C 603.5,33.8333 603.5,68.1667 603.5,102.5C 594.583,99.4504 591.916,101.95 595.5,110C 595.167,110.5 594.833,111 594.5,111.5C 593.667,109.5 592.833,107.5 592,105.5C 589.629,108.206 586.963,110.539 584,112.5C 583.333,111.833 583.333,111.167 584,110.5C 587.915,108.254 590.748,105.088 592.5,101C 589.456,100.637 586.456,100.137 583.5,99.5C 583.667,73.8312 583.5,48.1645 583,22.5C 581.833,20 580,18.1667 577.5,17C 567.506,16.5002 557.506,16.3335 547.5,16.5C 542.167,10.8333 536.833,5.16667 531.5,-0.5 Z"/></g>
<g><path style="opacity:1" fill="#05bc8c" d="M 87.5,16.5 C 180.5,16.5 273.5,16.5 366.5,16.5C 426.833,16.5 487.167,16.5 547.5,16.5C 557.506,16.3335 567.506,16.5002 577.5,17C 580,18.1667 581.833,20 583,22.5C 583.5,48.1645 583.667,73.8312 583.5,99.5C 583.726,104.55 581.726,108.383 577.5,111C 549.835,111.5 522.169,111.667 494.5,111.5C 478.167,111.5 461.833,111.5 445.5,111.5C 395.833,111.5 346.167,111.5 296.5,111.5C 294.327,107.148 291.66,103.148 288.5,99.5C 285.34,103.148 282.673,107.148 280.5,111.5C 193.499,111.667 106.499,111.5 19.5,111C 16.6193,109.749 14.786,107.583 14,104.5C 13.0173,76.4135 13.3507,48.4135 15,20.5C 16.214,18.9512 17.714,17.7845 19.5,17C 42.1642,16.5 64.8309,16.3334 87.5,16.5 Z"/></g>
<g><path style="opacity:1" fill="#f7fdfb" d="M 64.5,44.5 C 80.5144,45.3415 87.681,53.6749 86,69.5C 81.4925,80.6465 73.3258,84.8132 61.5,82C 55.6995,80.0326 51.6995,76.1993 49.5,70.5C 50.365,69.4173 51.365,69.2506 52.5,70C 55.7711,72.0864 58.9377,74.2531 62,76.5C 65.8465,75.3202 68.3465,72.8202 69.5,69C 73.3418,67.386 76.8418,65.2193 80,62.5C 81.5,54.6667 78.3333,51.5 70.5,53C 67.5394,55.9994 65.3728,59.4994 64,63.5C 63.0975,64.7014 61.9308,65.5348 60.5,66C 55.837,66.004 51.837,64.3373 48.5,61C 50.7045,52.2974 56.0379,46.7974 64.5,44.5 Z"/></g>
<g><path style="opacity:1" fill="#dbf5ee" d="M 165.5,49.5 C 169.138,48.7366 170.638,50.0699 170,53.5C 165.415,55.4126 163.915,54.0793 165.5,49.5 Z"/></g>
<g><path style="opacity:1" fill="#e9f9f5" d="M 205.5,49.5 C 206.675,49.281 207.675,49.6143 208.5,50.5C 204.373,60.0476 200.54,69.7142 197,79.5C 195.817,80.731 194.651,80.731 193.5,79.5C 197.702,69.5558 201.702,59.5558 205.5,49.5 Z"/></g>
<g><path style="opacity:1" fill="#dbf5ee" d="M 276.5,49.5 C 280.138,48.7366 281.638,50.0699 281,53.5C 276.415,55.4126 274.915,54.0793 276.5,49.5 Z"/></g>
<g><path style="opacity:1" fill="#f3fcf9" d="M 391.5,49.5 C 395.161,49.3501 396.161,50.8501 394.5,54C 390.707,54.4866 389.707,52.9866 391.5,49.5 Z"/></g>
<g><path style="opacity:1" fill="#fbfefd" d="M 415.5,49.5 C 416.5,49.5 417.5,49.5 418.5,49.5C 418.177,53.226 418.511,56.8927 419.5,60.5C 423.564,57.7027 427.398,58.036 431,61.5C 431.499,67.1569 431.666,72.8236 431.5,78.5C 430.5,78.5 429.5,78.5 428.5,78.5C 428.666,73.4889 428.499,68.4889 428,63.5C 425.075,60.9406 422.075,60.9406 419,63.5C 418.501,68.4889 418.334,73.4889 418.5,78.5C 417.5,78.5 416.5,78.5 415.5,78.5C 415.5,68.8333 415.5,59.1667 415.5,49.5 Z"/></g>
<g><path style="opacity:1" fill="#f1fbf8" d="M 105.5,50.5 C 106.833,50.5 108.167,50.5 109.5,50.5C 109.5,58.8333 109.5,67.1667 109.5,75.5C 113.5,75.5 117.5,75.5 121.5,75.5C 121.5,76.5 121.5,77.5 121.5,78.5C 116.167,78.5 110.833,78.5 105.5,78.5C 105.5,69.1667 105.5,59.8333 105.5,50.5 Z"/></g>
<g><path style="opacity:1" fill="#f2fbf9" d="M 212.5,50.5 C 216.514,50.3345 220.514,50.5012 224.5,51C 230.059,52.4579 231.892,55.9579 230,61.5C 228.316,63.3513 226.483,65.018 224.5,66.5C 227.362,70.1954 230.028,74.0287 232.5,78C 231.167,78.6667 229.833,78.6667 228.5,78C 225.447,74.6134 222.78,70.9467 220.5,67C 219.207,66.51 217.873,66.3433 216.5,66.5C 216.5,70.5 216.5,74.5 216.5,78.5C 215.167,78.5 213.833,78.5 212.5,78.5C 212.5,69.1667 212.5,59.8333 212.5,50.5 Z"/></g>
<g><path style="opacity:1" fill="#f1fbf9" d="M 448.5,50.5 C 451.187,50.3359 453.854,50.5026 456.5,51C 459.521,51.8488 460.021,53.3488 458,55.5C 455.421,53.6533 452.588,53.1533 449.5,54C 446.833,56.3333 446.833,58.6667 449.5,61C 453.625,61.7037 457.125,63.537 460,66.5C 461.758,72.1497 459.924,75.983 454.5,78C 449.869,79.2612 445.869,78.2612 442.5,75C 443.108,74.1301 443.941,73.6301 445,73.5C 448.717,76.0843 452.383,76.0843 456,73.5C 456.667,71.8333 456.667,70.1667 456,68.5C 451.684,66.7261 447.684,64.3927 444,61.5C 442.776,56.626 444.276,52.9593 448.5,50.5 Z"/></g>
<g><path style="opacity:1" fill="#f7fdfb" d="M 304.5,52.5 C 305.5,52.5 306.5,52.5 307.5,52.5C 307.5,54.5 307.5,56.5 307.5,58.5C 309.5,58.5 311.5,58.5 313.5,58.5C 313.5,59.5 313.5,60.5 313.5,61.5C 311.5,61.5 309.5,61.5 307.5,61.5C 307.334,65.8461 307.501,70.1794 308,74.5C 309.458,75.7468 310.958,75.7468 312.5,74.5C 313.529,77.3083 312.362,78.6416 309,78.5C 307.289,78.5607 305.956,77.8941 305,76.5C 304.501,71.5111 304.334,66.5111 304.5,61.5C 303.5,61.5 302.5,61.5 301.5,61.5C 301.5,60.5 301.5,59.5 301.5,58.5C 302.5,58.5 303.5,58.5 304.5,58.5C 304.5,56.5 304.5,54.5 304.5,52.5 Z"/></g>
<g><path style="opacity:1" fill="#effbf8" d="M 403.5,51.5 C 405.344,53.2789 406.01,55.6122 405.5,58.5C 407.5,58.5 409.5,58.5 411.5,58.5C 411.5,59.5 411.5,60.5 411.5,61.5C 409.5,61.5 407.5,61.5 405.5,61.5C 405.5,66.1667 405.5,70.8333 405.5,75.5C 407.144,75.7135 408.644,75.3802 410,74.5C 410.692,75.0253 411.192,75.6919 411.5,76.5C 408.872,78.6327 406.039,78.966 403,77.5C 401.603,72.2919 401.103,66.9586 401.5,61.5C 400.5,61.5 399.5,61.5 398.5,61.5C 398.5,60.5 398.5,59.5 398.5,58.5C 399.833,58.5 401.167,58.5 402.5,58.5C 402.298,56.0504 402.631,53.717 403.5,51.5 Z"/></g>
<g><path style="opacity:1" fill="#f0fbf8" d="M 467.5,51.5 C 469.344,53.2789 470.01,55.6122 469.5,58.5C 471.5,58.5 473.5,58.5 475.5,58.5C 475.5,59.5 475.5,60.5 475.5,61.5C 473.5,61.5 471.5,61.5 469.5,61.5C 469.334,65.8461 469.501,70.1794 470,74.5C 471.333,75.8333 472.667,75.8333 474,74.5C 474.692,75.0253 475.192,75.6919 475.5,76.5C 472.005,79.3682 468.838,79.0349 466,75.5C 465.501,70.8452 465.334,66.1785 465.5,61.5C 464.5,61.5 463.5,61.5 462.5,61.5C 462.5,60.5 462.5,59.5 462.5,58.5C 463.833,58.5 465.167,58.5 466.5,58.5C 466.298,56.0504 466.631,53.717 467.5,51.5 Z"/></g>
<g><path style="opacity:1" fill="#0fbd8e" d="M 216.5,53.5 C 219.187,53.3359 221.854,53.5026 224.5,54C 227.113,56.7953 227.113,59.6286 224.5,62.5C 221.916,63.3928 219.249,63.7261 216.5,63.5C 216.5,60.1667 216.5,56.8333 216.5,53.5 Z"/></g>
<g><path style="opacity:1" fill="#e7f9f4" d="M 71.5,54.5 C 78.4863,54.331 80.153,57.1643 76.5,63C 69.4159,63.475 67.7492,60.6417 71.5,54.5 Z"/></g>
<g><path style="opacity:1" fill="#17bf91" d="M 72.5,55.5 C 77.4928,55.997 78.4928,58.1637 75.5,62C 70.3823,61.8242 69.3823,59.6576 72.5,55.5 Z"/></g>
<g><path style="opacity:1" fill="#f1fbf8" d="M 128.5,58.5 C 139.856,58.362 143.689,63.6953 140,74.5C 136.95,78.1303 133.117,79.297 128.5,78C 122.891,74.7231 121.058,69.8897 123,63.5C 124.73,61.5981 126.563,59.9314 128.5,58.5 Z"/></g>
<g><path style="opacity:1" fill="#f0fbf8" d="M 165.5,58.5 C 166.833,58.5 168.167,58.5 169.5,58.5C 169.5,65.1667 169.5,71.8333 169.5,78.5C 168.167,78.5 166.833,78.5 165.5,78.5C 165.5,71.8333 165.5,65.1667 165.5,58.5 Z"/></g>
<g><path style="opacity:1" fill="#fbfefd" d="M 175.5,58.5 C 176.5,58.5 177.5,58.5 178.5,58.5C 178.443,62.1331 179.443,62.2998 181.5,59C 185.274,57.8175 188.441,58.6508 191,61.5C 191.499,67.1569 191.666,72.8236 191.5,78.5C 190.5,78.5 189.5,78.5 188.5,78.5C 188.666,73.4889 188.499,68.4889 188,63.5C 185.075,60.9406 182.075,60.9406 179,63.5C 178.501,68.4889 178.334,73.4889 178.5,78.5C 177.5,78.5 176.5,78.5 175.5,78.5C 175.5,71.8333 175.5,65.1667 175.5,58.5 Z"/></g>
<g><path style="opacity:1" fill="#effbf7" d="M 240.5,58.5 C 248.514,57.1886 252.514,60.522 252.5,68.5C 247.833,68.5 243.167,68.5 238.5,68.5C 239.919,75.7639 243.919,77.4306 250.5,73.5C 251.731,74.6507 251.731,75.8173 250.5,77C 239.116,80.6197 233.95,76.453 235,64.5C 236.36,61.9774 238.193,59.9774 240.5,58.5 Z"/></g>
<g><path style="opacity:1" fill="#effbf8" d="M 276.5,58.5 C 277.833,58.5 279.167,58.5 280.5,58.5C 280.5,65.1667 280.5,71.8333 280.5,78.5C 279.167,78.5 277.833,78.5 276.5,78.5C 276.5,71.8333 276.5,65.1667 276.5,58.5 Z"/></g>
<g><path style="opacity:1" fill="#f4fcfa" d="M 288.5,58.5 C 292.219,58.0025 295.553,58.8358 298.5,61C 297.975,61.6924 297.308,62.1924 296.5,62.5C 294.232,61.4557 291.899,61.289 289.5,62C 288.978,62.5613 288.645,63.228 288.5,64C 291.301,66.3863 294.467,68.2196 298,69.5C 298.729,77.0895 295.229,79.9228 287.5,78C 286.672,77.0853 285.672,76.4186 284.5,76C 285.108,75.1301 285.941,74.6301 287,74.5C 289.453,75.4929 291.953,75.6595 294.5,75C 295.833,73.6667 295.833,72.3333 294.5,71C 291.344,70.0628 288.511,68.5628 286,66.5C 285.018,63.2253 285.851,60.5586 288.5,58.5 Z"/></g>
<g><path style="opacity:1" fill="#f4fcfa" d="M 321.5,58.5 C 329.562,57.2416 333.562,60.575 333.5,68.5C 328.833,68.5 324.167,68.5 319.5,68.5C 321.004,75.7359 325.004,77.4026 331.5,73.5C 332.5,73.8333 333.167,74.5 333.5,75.5C 328.5,79.5 323.5,79.5 318.5,75.5C 315.078,68.8876 316.078,63.2209 321.5,58.5 Z"/></g>
<g><path style="opacity:1" fill="#eefaf7" d="M 337.5,58.5 C 339.451,58.2267 340.951,58.8934 342,60.5C 344.228,58.8866 346.728,58.22 349.5,58.5C 349.5,59.5 349.5,60.5 349.5,61.5C 346.348,60.9586 343.848,61.9586 342,64.5C 341.501,69.1548 341.334,73.8215 341.5,78.5C 340.167,78.5 338.833,78.5 337.5,78.5C 337.5,71.8333 337.5,65.1667 337.5,58.5 Z"/></g>
<g><path style="opacity:1" fill="#edfaf7" d="M 358.5,59.5 C 359.708,58.218 361.042,58.218 362.5,59.5C 363.847,63.8881 365.347,68.2215 367,72.5C 368.401,68.1292 369.901,63.7959 371.5,59.5C 372.689,58.5713 374.022,58.238 375.5,58.5C 376.493,63.3134 377.993,67.9801 380,72.5C 381.178,68.1203 382.512,63.7869 384,59.5C 385.011,58.6634 386.178,58.33 387.5,58.5C 385.908,64.9428 383.908,71.2761 381.5,77.5C 380.349,78.731 379.183,78.731 378,77.5C 376.586,73.016 374.919,68.6826 373,64.5C 370.993,69.0199 369.493,73.6866 368.5,78.5C 367.022,78.762 365.689,78.4287 364.5,77.5C 363.069,71.2076 361.069,65.2076 358.5,59.5 Z"/></g>
<g><path style="opacity:1" fill="#fefffe" d="M 391.5,58.5 C 392.5,58.5 393.5,58.5 394.5,58.5C 394.5,65.1667 394.5,71.8333 394.5,78.5C 393.5,78.5 392.5,78.5 391.5,78.5C 391.5,71.8333 391.5,65.1667 391.5,58.5 Z"/></g>
<g><path style="opacity:1" fill="#eefbf7" d="M 483.5,58.5 C 491.514,57.1886 495.514,60.522 495.5,68.5C 490.833,68.5 486.167,68.5 481.5,68.5C 482.919,75.7639 486.919,77.4306 493.5,73.5C 494.731,74.6507 494.731,75.8173 493.5,77C 482.116,80.6197 476.95,76.453 478,64.5C 479.36,61.9774 481.193,59.9774 483.5,58.5 Z"/></g>
<g><path style="opacity:1" fill="#ecfaf6" d="M 503.5,58.5 C 507.909,57.6185 511.409,58.9518 514,62.5C 514.499,67.8229 514.666,73.1563 514.5,78.5C 513.5,78.5 512.5,78.5 511.5,78.5C 511.649,77.448 511.483,76.448 511,75.5C 508.347,78.1941 505.18,79.0274 501.5,78C 498.034,75.3388 497.701,72.3388 500.5,69C 503.608,67.2415 506.941,66.4081 510.5,66.5C 510.532,61.7871 508.199,60.2871 503.5,62C 501.912,64.043 500.579,63.8764 499.5,61.5C 500.901,60.4793 502.235,59.4793 503.5,58.5 Z"/></g>
<g><path style="opacity:1" fill="#f0fbf8" d="M 519.5,58.5 C 521.124,58.3601 522.29,59.0267 523,60.5C 526.696,57.5749 530.029,57.9083 533,61.5C 538.215,56.9808 542.549,57.6475 546,63.5C 546.499,68.4889 546.666,73.4889 546.5,78.5C 545.167,78.5 543.833,78.5 542.5,78.5C 542.666,73.4889 542.499,68.4889 542,63.5C 539.667,60.8333 537.333,60.8333 535,63.5C 534.501,68.4889 534.334,73.4889 534.5,78.5C 533.167,78.5 531.833,78.5 530.5,78.5C 530.666,73.1563 530.499,67.8229 530,62.5C 527.408,61.0183 525.075,61.3517 523,63.5C 522.501,68.4889 522.334,73.4889 522.5,78.5C 521.5,78.5 520.5,78.5 519.5,78.5C 519.5,71.8333 519.5,65.1667 519.5,58.5 Z"/></g>
<g><path style="opacity:1" fill="#16be8f" d="M 128.5,61.5 C 136.166,60.6682 138.999,64.0015 137,71.5C 135.368,75.212 132.535,76.3787 128.5,75C 125.857,70.4352 125.857,65.9352 128.5,61.5 Z"/></g>
<g><path style="opacity:1" fill="#22c092" d="M 240.5,61.5 C 242.857,61.3367 245.19,61.5034 247.5,62C 248.337,63.0113 248.67,64.1779 248.5,65.5C 245.15,65.665 241.817,65.4983 238.5,65C 239.305,63.8873 239.972,62.7206 240.5,61.5 Z"/></g>
<g><path style="opacity:1" fill="#13be8f" d="M 322.5,61.5 C 325.908,60.828 328.575,61.828 330.5,64.5C 327.167,65.8333 323.833,65.8333 320.5,64.5C 321.193,63.4822 321.859,62.4822 322.5,61.5 Z"/></g>
<g><path style="opacity:1" fill="#22c092" d="M 483.5,61.5 C 485.857,61.3367 488.19,61.5034 490.5,62C 491.337,63.0113 491.67,64.1779 491.5,65.5C 488.15,65.665 484.817,65.4983 481.5,65C 482.305,63.8873 482.972,62.7206 483.5,61.5 Z"/></g>
<g><path style="opacity:1" fill="#1ebf91" d="M 505.5,69.5 C 507.167,69.5 508.833,69.5 510.5,69.5C 510.503,74.8155 507.836,76.8155 502.5,75.5C 502.028,72.6421 503.028,70.6421 505.5,69.5 Z"/></g>
<g><path style="opacity:1" fill="#f0fbf8" d="M 148.5,58.5 C 153.26,58.5133 157.926,59.1799 162.5,60.5C 160.362,63.4102 158.695,66.5769 157.5,70C 154.5,70.8333 151.5,71.6667 148.5,72.5C 148.709,73.086 149.043,73.586 149.5,74C 153.563,74.0384 157.397,74.8717 161,76.5C 162.165,80.6836 160.665,83.5169 156.5,85C 151.848,86.1931 147.681,85.3597 144,82.5C 143.08,79.6917 143.913,77.5251 146.5,76C 145.065,73.7328 145.398,71.7328 147.5,70C 145.643,68.8176 144.643,67.151 144.5,65C 145.205,62.4582 146.539,60.2916 148.5,58.5 Z"/></g>
<g><path style="opacity:1" fill="#21c092" d="M 149.5,61.5 C 156.19,60.3306 157.857,62.4973 154.5,68C 148.741,69.1387 147.074,66.972 149.5,61.5 Z"/></g>
<g><path style="opacity:1" fill="#f0fbf8" d="M 259.5,58.5 C 264.26,58.5133 268.926,59.1799 273.5,60.5C 271.362,63.4102 269.695,66.5769 268.5,70C 265.5,70.8333 262.5,71.6667 259.5,72.5C 259.709,73.086 260.043,73.586 260.5,74C 264.563,74.0384 268.397,74.8717 272,76.5C 273.165,80.6836 271.665,83.5169 267.5,85C 262.848,86.1931 258.681,85.3597 255,82.5C 254.08,79.6917 254.913,77.5251 257.5,76C 256.065,73.7328 256.398,71.7328 258.5,70C 256.643,68.8176 255.643,67.151 255.5,65C 256.205,62.4582 257.539,60.2916 259.5,58.5 Z"/></g>
<g><path style="opacity:1" fill="#21c092" d="M 260.5,61.5 C 267.19,60.3306 268.857,62.4973 265.5,68C 259.741,69.1387 258.074,66.972 260.5,61.5 Z"/></g>
<g><path style="opacity:1" fill="#ddf6f0" d="M 61.5,66.5 C 66.2875,67.7261 67.2875,70.2261 64.5,74C 62.8333,74.6667 61.1667,74.6667 59.5,74C 60.8333,73.6667 62.1667,73.3333 63.5,73C 64.0219,72.4387 64.3552,71.772 64.5,71C 63.4451,69.4928 62.4451,67.9928 61.5,66.5 Z"/></g>
<g><path style="opacity:1" fill="#17be90" d="M 147.5,77.5 C 150.85,77.335 154.183,77.5017 157.5,78C 158.727,79.5874 158.394,80.9207 156.5,82C 153.833,82.6667 151.167,82.6667 148.5,82C 147.62,80.6439 147.286,79.1439 147.5,77.5 Z"/></g>
<g><path style="opacity:1" fill="#17be90" d="M 258.5,77.5 C 261.85,77.335 265.183,77.5017 268.5,78C 269.727,79.5874 269.394,80.9207 267.5,82C 264.833,82.6667 262.167,82.6667 259.5,82C 258.62,80.6439 258.286,79.1439 258.5,77.5 Z"/></g>
<g><path style="opacity:1" fill="#ec1c23" d="M 296.5,111.5 C 301.367,121.4 306.367,131.234 311.5,141C 311.355,141.772 311.022,142.439 310.5,143C 307.305,143.181 304.305,143.681 301.5,144.5C 301.5,145.167 301.5,145.833 301.5,146.5C 301.667,158.171 301.5,169.838 301,181.5C 292.667,182.833 284.333,182.833 276,181.5C 275.5,169.838 275.333,158.171 275.5,146.5C 275.5,145.833 275.5,145.167 275.5,144.5C 272.695,143.681 269.695,143.181 266.5,143C 265.978,142.439 265.645,141.772 265.5,141C 270.633,131.234 275.633,121.4 280.5,111.5C 282.673,107.148 285.34,103.148 288.5,99.5C 291.66,103.148 294.327,107.148 296.5,111.5 Z"/></g>
<g><path style="opacity:1" fill="#232222" d="M -0.5,-0.5 C 17.5,-0.5 35.5,-0.5 53.5,-0.5C 53.9361,1.74627 54.6028,3.91293 55.5,6C 59.7843,5.54309 64.1177,5.54309 68.5,6C 73.0427,7.81581 77.7093,9.31581 82.5,10.5C 83.3633,13.1156 85.0299,15.1156 87.5,16.5C 64.8309,16.3334 42.1642,16.5 19.5,17C 17.714,17.7845 16.214,18.9512 15,20.5C 13.3507,48.4135 13.0173,76.4135 14,104.5C 14.786,107.583 16.6193,109.749 19.5,111C 106.499,111.5 193.499,111.667 280.5,111.5C 275.633,121.4 270.633,131.234 265.5,141C 265.645,141.772 265.978,142.439 266.5,143C 269.695,143.181 272.695,143.681 275.5,144.5C 210.166,144.333 144.832,144.5 79.5,145C 77,146.167 75.1667,148 74,150.5C 73.3333,178.5 73.3333,206.5 74,234.5C 75.1667,237 77,238.833 79.5,240C 90.1615,240.5 100.828,240.667 111.5,240.5C 111.035,244.956 110.035,249.289 108.5,253.5C 110.12,255.739 109.787,257.573 107.5,259C 108.337,260.011 108.67,261.178 108.5,262.5C 72.1667,262.5 35.8333,262.5 -0.5,262.5C -0.5,174.833 -0.5,87.1667 -0.5,-0.5 Z"/></g>
<g><path style="opacity:1" fill="#232223" d="M 296.5,111.5 C 346.167,111.5 395.833,111.5 445.5,111.5C 446.429,112.315 447.429,113.148 448.5,114C 447.465,115.507 447.632,117.007 449,118.5C 452.188,124.015 457.022,126.848 463.5,127C 467.421,127.203 471.255,127.703 475,128.5C 475.333,128.167 475.667,127.833 476,127.5C 478.957,128.694 481.624,130.36 484,132.5C 484.414,132.043 484.914,131.709 485.5,131.5C 486.333,132.5 487.167,133.5 488,134.5C 488.667,133.167 489.333,133.167 490,134.5C 492.741,137.646 495.241,140.979 497.5,144.5C 432.167,144.5 366.833,144.5 301.5,144.5C 304.305,143.681 307.305,143.181 310.5,143C 311.022,142.439 311.355,141.772 311.5,141C 306.367,131.234 301.367,121.4 296.5,111.5 Z"/></g>
<g><path style="opacity:1" fill="#313131" d="M 583.5,99.5 C 586.456,100.137 589.456,100.637 592.5,101C 590.748,105.088 587.915,108.254 584,110.5C 583.333,111.167 583.333,111.833 584,112.5C 586.963,110.539 589.629,108.206 592,105.5C 592.833,107.5 593.667,109.5 594.5,111.5C 594.833,111 595.167,110.5 595.5,110C 591.916,101.95 594.583,99.4504 603.5,102.5C 603.5,110.5 603.5,118.5 603.5,126.5C 601.143,126.337 598.81,126.503 596.5,127C 593.651,130.016 590.651,132.85 587.5,135.5C 586.457,137.783 585.791,139.783 585.5,141.5C 584.094,140.573 582.594,139.573 581,138.5C 580.257,136.559 580.424,134.726 581.5,133C 581,132.5 580.5,132 580,131.5C 579.695,138.649 576.195,140.482 569.5,137C 567.69,134.356 565.69,131.856 563.5,129.5C 562.534,131.396 562.201,133.396 562.5,135.5C 558.983,133.915 555.316,132.582 551.5,131.5C 548.488,132.172 545.488,132.839 542.5,133.5C 542.5,135.167 542.5,136.833 542.5,138.5C 540.856,138.714 539.356,138.38 538,137.5C 537.752,133.238 538.252,129.071 539.5,125C 537.573,126.257 535.239,127.09 532.5,127.5C 529.447,128.048 527.447,126.882 526.5,124C 524.757,122.365 522.923,122.198 521,123.5C 519.248,122.042 517.415,120.709 515.5,119.5C 511.5,120.167 507.5,120.833 503.5,121.5C 503.023,125.791 500.856,127.458 497,126.5C 495.656,131.694 494.489,131.694 493.5,126.5C 493.826,123.342 494.826,120.508 496.5,118C 495.833,117.667 495.167,117.333 494.5,117C 495.752,115.172 495.752,113.339 494.5,111.5C 522.169,111.667 549.835,111.5 577.5,111C 581.726,108.383 583.726,104.55 583.5,99.5 Z"/></g>
<g><path style="opacity:1" fill="#292828" d="M 445.5,111.5 C 461.833,111.5 478.167,111.5 494.5,111.5C 495.752,113.339 495.752,115.172 494.5,117C 495.167,117.333 495.833,117.667 496.5,118C 494.826,120.508 493.826,123.342 493.5,126.5C 494.489,131.694 495.656,131.694 497,126.5C 500.856,127.458 503.023,125.791 503.5,121.5C 507.5,120.833 511.5,120.167 515.5,119.5C 517.415,120.709 519.248,122.042 521,123.5C 522.923,122.198 524.757,122.365 526.5,124C 527.447,126.882 529.447,128.048 532.5,127.5C 535.239,127.09 537.573,126.257 539.5,125C 538.252,129.071 537.752,133.238 538,137.5C 539.356,138.38 540.856,138.714 542.5,138.5C 542.5,136.833 542.5,135.167 542.5,133.5C 545.488,132.839 548.488,132.172 551.5,131.5C 555.316,132.582 558.983,133.915 562.5,135.5C 562.201,133.396 562.534,131.396 563.5,129.5C 565.69,131.856 567.69,134.356 569.5,137C 576.195,140.482 579.695,138.649 580,131.5C 580.5,132 581,132.5 581.5,133C 580.424,134.726 580.257,136.559 581,138.5C 582.594,139.573 584.094,140.573 585.5,141.5C 585.791,139.783 586.457,137.783 587.5,135.5C 590.651,132.85 593.651,130.016 596.5,127C 598.81,126.503 601.143,126.337 603.5,126.5C 603.5,133.5 603.5,140.5 603.5,147.5C 597.943,148.603 592.443,149.937 587,151.5C 580.305,151.091 573.638,151.091 567,151.5C 565.441,150.971 563.941,150.304 562.5,149.5C 561.167,150.167 559.833,150.833 558.5,151.5C 556.458,149.287 554.125,148.62 551.5,149.5C 549.299,147.167 546.799,146.834 544,148.5C 542.674,148.245 541.674,147.578 541,146.5C 535.077,146.813 529.244,146.813 523.5,146.5C 519.222,143.794 514.555,141.96 509.5,141C 508.271,139.471 506.771,138.304 505,137.5C 504.256,139.9 503.423,142.233 502.5,144.5C 500.833,144.5 499.167,144.5 497.5,144.5C 495.241,140.979 492.741,137.646 490,134.5C 489.333,133.167 488.667,133.167 488,134.5C 487.167,133.5 486.333,132.5 485.5,131.5C 484.914,131.709 484.414,132.043 484,132.5C 481.624,130.36 478.957,128.694 476,127.5C 475.667,127.833 475.333,128.167 475,128.5C 471.255,127.703 467.421,127.203 463.5,127C 457.022,126.848 452.188,124.015 449,118.5C 447.632,117.007 447.465,115.507 448.5,114C 447.429,113.148 446.429,112.315 445.5,111.5 Z"/></g>
<g><path style="opacity:1" fill="#1f1e1e" d="M 603.5,147.5 C 603.5,185.833 603.5,224.167 603.5,262.5C 438.5,262.5 273.5,262.5 108.5,262.5C 108.67,261.178 108.337,260.011 107.5,259C 109.787,257.573 110.12,255.739 108.5,253.5C 110.035,249.289 111.035,244.956 111.5,240.5C 246.834,240.667 382.167,240.5 517.5,240C 520.381,238.749 522.214,236.583 523,233.5C 523.667,205.833 523.667,178.167 523,150.5C 521.833,148 520,146.167 517.5,145C 512.511,144.501 507.511,144.334 502.5,144.5C 503.423,142.233 504.256,139.9 505,137.5C 506.771,138.304 508.271,139.471 509.5,141C 514.555,141.96 519.222,143.794 523.5,146.5C 529.244,146.813 535.077,146.813 541,146.5C 541.674,147.578 542.674,148.245 544,148.5C 546.799,146.834 549.299,147.167 551.5,149.5C 554.125,148.62 556.458,149.287 558.5,151.5C 559.833,150.833 561.167,150.167 562.5,149.5C 563.941,150.304 565.441,150.971 567,151.5C 573.638,151.091 580.305,151.091 587,151.5C 592.443,149.937 597.943,148.603 603.5,147.5 Z"/></g>
<g><path style="opacity:1" fill="#434444" d="M 275.5,144.5 C 275.5,145.167 275.5,145.833 275.5,146.5C 210.499,146.333 145.499,146.5 80.5,147C 78.3333,147.833 76.8333,149.333 76,151.5C 75.3333,178.833 75.3333,206.167 76,233.5C 76.8333,235.667 78.3333,237.167 80.5,238C 225.5,238.667 370.5,238.667 515.5,238C 518.232,237.602 520.065,236.102 521,233.5C 521.667,206.167 521.667,178.833 521,151.5C 520.535,150.069 519.701,148.903 518.5,148C 446.225,146.51 373.891,146.01 301.5,146.5C 301.5,145.833 301.5,145.167 301.5,144.5C 366.833,144.5 432.167,144.5 497.5,144.5C 499.167,144.5 500.833,144.5 502.5,144.5C 507.511,144.334 512.511,144.501 517.5,145C 520,146.167 521.833,148 523,150.5C 523.667,178.167 523.667,205.833 523,233.5C 522.214,236.583 520.381,238.749 517.5,240C 382.167,240.5 246.834,240.667 111.5,240.5C 100.828,240.667 90.1615,240.5 79.5,240C 77,238.833 75.1667,237 74,234.5C 73.3333,206.5 73.3333,178.5 74,150.5C 75.1667,148 77,146.167 79.5,145C 144.832,144.5 210.166,144.333 275.5,144.5 Z"/></g>
<g><path style="opacity:1" fill="#7289da" d="M 275.5,146.5 C 275.333,158.171 275.5,169.838 276,181.5C 284.333,182.833 292.667,182.833 301,181.5C 301.5,169.838 301.667,158.171 301.5,146.5C 373.891,146.01 446.225,146.51 518.5,148C 519.701,148.903 520.535,150.069 521,151.5C 521.667,178.833 521.667,206.167 521,233.5C 520.065,236.102 518.232,237.602 515.5,238C 370.5,238.667 225.5,238.667 80.5,238C 78.3333,237.167 76.8333,235.667 76,233.5C 75.3333,206.167 75.3333,178.833 76,151.5C 76.8333,149.333 78.3333,147.833 80.5,147C 145.499,146.5 210.499,146.333 275.5,146.5 Z"/></g>
<g><path style="opacity:1" fill="#f4f6fc" d="M 453.5,187.5 C 455.451,187.227 456.951,187.893 458,189.5C 460.228,187.887 462.728,187.22 465.5,187.5C 465.5,188.5 465.5,189.5 465.5,190.5C 462.348,189.959 459.848,190.959 458,193.5C 457.501,198.155 457.334,202.821 457.5,207.5C 456.167,207.5 454.833,207.5 453.5,207.5C 453.5,200.833 453.5,194.167 453.5,187.5 Z"/></g>
<g><path style="opacity:1" fill="#f2f4fb" d="M 436.5,187.5 C 447.66,186.502 451.827,191.502 449,202.5C 446.103,207.155 441.937,208.655 436.5,207C 431.365,203.945 429.532,199.445 431,193.5C 432.36,190.977 434.193,188.977 436.5,187.5 Z"/></g>
<g><path style="opacity:1" fill="#748ada" d="M 437.5,190.5 C 439.527,190.338 441.527,190.505 443.5,191C 446.167,195.333 446.167,199.667 443.5,204C 437.88,205.554 434.88,203.387 434.5,197.5C 434.93,194.862 435.93,192.529 437.5,190.5 Z"/></g>
<g><path style="opacity:1" fill="#f5f6fc" d="M 417.5,187.5 C 420.187,187.336 422.854,187.503 425.5,188C 426.91,188.368 427.91,189.201 428.5,190.5C 425.614,190.71 422.614,190.877 419.5,191C 416.606,193.909 415.773,197.409 417,201.5C 419.971,205.092 423.304,205.425 427,202.5C 429.021,204.651 428.521,206.151 425.5,207C 415.557,208.053 411.391,203.553 413,193.5C 414.332,191.34 415.832,189.34 417.5,187.5 Z"/></g>
<g><path style="opacity:1" fill="#f7f8fd" d="M 399.5,187.5 C 403.219,187.002 406.553,187.836 409.5,190C 408.975,190.692 408.308,191.192 407.5,191.5C 405.232,190.456 402.899,190.289 400.5,191C 399.978,191.561 399.645,192.228 399.5,193C 402.301,195.386 405.467,197.22 409,198.5C 409.729,206.09 406.229,208.923 398.5,207C 397.09,206.632 396.09,205.799 395.5,204.5C 398.422,204.101 401.422,203.934 404.5,204C 405.357,203.311 406.023,202.478 406.5,201.5C 403.318,199.571 400.152,197.571 397,195.5C 396.018,192.225 396.851,189.559 399.5,187.5 Z"/></g>
<g><path style="opacity:1" fill="#f6f7fd" d="M 387.5,187.5 C 388.833,187.5 390.167,187.5 391.5,187.5C 391.5,194.167 391.5,200.833 391.5,207.5C 390.167,207.5 388.833,207.5 387.5,207.5C 387.5,200.833 387.5,194.167 387.5,187.5 Z"/></g>
<g><path style="opacity:1" fill="#f2f4fb" d="M 304.5,187.5 C 305.833,187.5 307.167,187.5 308.5,187.5C 308.5,194.167 308.5,200.833 308.5,207.5C 307.167,207.5 305.833,207.5 304.5,207.5C 304.5,200.833 304.5,194.167 304.5,187.5 Z"/></g>
<g><path style="opacity:1" fill="#f3f4fb" d="M 272.5,188.5 C 273.884,187.199 275.384,187.199 277,188.5C 278.135,192.905 279.468,197.238 281,201.5C 282.401,197.129 283.901,192.796 285.5,188.5C 286.833,187.167 288.167,187.167 289.5,188.5C 290.701,192.935 292.201,197.268 294,201.5C 295.178,197.12 296.512,192.787 298,188.5C 299.011,187.663 300.178,187.33 301.5,187.5C 299.781,193.827 297.948,200.161 296,206.5C 294.644,207.38 293.144,207.714 291.5,207.5C 291.07,202.773 289.57,198.44 287,194.5C 285.402,198.461 283.902,202.461 282.5,206.5C 281.311,207.429 279.978,207.762 278.5,207.5C 276.874,200.96 274.874,194.627 272.5,188.5 Z"/></g>
<g><path style="opacity:1" fill="#f1f3fb" d="M 245.5,187.5 C 247.492,187.328 249.158,187.995 250.5,189.5C 254.642,186.593 258.476,186.926 262,190.5C 262.499,196.157 262.666,201.824 262.5,207.5C 261.167,207.5 259.833,207.5 258.5,207.5C 258.666,202.156 258.499,196.823 258,191.5C 255.167,190.13 252.5,190.464 250,192.5C 249.501,197.489 249.334,202.489 249.5,207.5C 248.167,207.5 246.833,207.5 245.5,207.5C 245.5,200.833 245.5,194.167 245.5,187.5 Z"/></g>
<g><path style="opacity:1" fill="#f6f7fc" d="M 236.5,187.5 C 237.833,187.5 239.167,187.5 240.5,187.5C 240.5,194.167 240.5,200.833 240.5,207.5C 239.167,207.5 237.833,207.5 236.5,207.5C 236.5,200.833 236.5,194.167 236.5,187.5 Z"/></g>
<g><path style="opacity:1" fill="#f5f6fc" d="M 219.5,187.5 C 224.26,187.513 228.926,188.18 233.5,189.5C 231.294,192.176 229.627,195.176 228.5,198.5C 225.714,199.956 222.714,200.956 219.5,201.5C 219.709,202.086 220.043,202.586 220.5,203C 224.563,203.038 228.397,203.872 232,205.5C 233.165,209.684 231.665,212.517 227.5,214C 222.848,215.193 218.681,214.36 215,211.5C 214.318,209.062 214.818,206.895 216.5,205C 215.105,202.431 215.772,200.431 218.5,199C 214.307,194.683 214.64,190.85 219.5,187.5 Z"/></g>
<g><path style="opacity:1" fill="#768cdb" d="M 218.5,206.5 C 221.518,206.335 224.518,206.502 227.5,207C 228.925,208.714 228.592,210.047 226.5,211C 224.167,211.667 221.833,211.667 219.5,211C 217.218,209.916 216.884,208.416 218.5,206.5 Z"/></g>
<g><path style="opacity:1" fill="#7e92dd" d="M 220.5,190.5 C 225.006,189.527 227.172,191.194 227,195.5C 223.498,198.466 220.665,197.966 218.5,194C 218.978,192.697 219.645,191.531 220.5,190.5 Z"/></g>
<g><path style="opacity:1" fill="#f4f5fc" d="M 198.5,187.5 C 208.988,186.487 213.488,191.154 212,201.5C 209.081,207.025 204.581,208.858 198.5,207C 193.725,203.345 192.225,198.512 194,192.5C 195.366,190.638 196.866,188.972 198.5,187.5 Z"/></g>
<g><path style="opacity:1" fill="#748ada" d="M 200.5,190.5 C 207.314,190.49 209.814,193.823 208,200.5C 205.127,205.408 201.794,205.741 198,201.5C 196.813,197.217 197.647,193.55 200.5,190.5 Z"/></g>
<g><path style="opacity:1" fill="#f6f7fc" d="M 317.5,180.5 C 319.344,182.279 320.01,184.612 319.5,187.5C 321.5,187.5 323.5,187.5 325.5,187.5C 325.5,188.5 325.5,189.5 325.5,190.5C 323.5,190.5 321.5,190.5 319.5,190.5C 319.334,194.846 319.501,199.179 320,203.5C 321.333,204.833 322.667,204.833 324,203.5C 324.692,204.025 325.192,204.692 325.5,205.5C 323.133,207.395 320.466,207.895 317.5,207C 316.874,206.25 316.374,205.416 316,204.5C 315.501,199.845 315.334,195.179 315.5,190.5C 314.5,190.5 313.5,190.5 312.5,190.5C 312.5,189.5 312.5,188.5 312.5,187.5C 313.833,187.5 315.167,187.5 316.5,187.5C 316.298,185.05 316.631,182.717 317.5,180.5 Z"/></g>
<g><path style="opacity:1" fill="#f5f7fc" d="M 358.5,179.5 C 364.593,179.139 370.593,179.639 376.5,181C 383.363,185.957 385.196,192.457 382,200.5C 380.833,203 379,204.833 376.5,206C 370.593,207.361 364.593,207.861 358.5,207.5C 358.5,198.167 358.5,188.833 358.5,179.5 Z"/></g>
<g><path style="opacity:1" fill="#768cdb" d="M 362.5,182.5 C 375.381,180.546 380.548,185.879 378,198.5C 377.167,201.333 375.333,203.167 372.5,204C 369.183,204.498 365.85,204.665 362.5,204.5C 362.5,197.167 362.5,189.833 362.5,182.5 Z"/></g>
<g><path style="opacity:1" fill="#eff2fb" d="M 175.5,179.5 C 177.167,179.5 178.833,179.5 180.5,179.5C 180.5,187.833 180.5,196.167 180.5,204.5C 184.5,204.5 188.5,204.5 192.5,204.5C 192.5,205.5 192.5,206.5 192.5,207.5C 186.833,207.5 181.167,207.5 175.5,207.5C 175.5,198.167 175.5,188.833 175.5,179.5 Z"/></g>
<g><path style="opacity:1" fill="#f3f5fc" d="M 481.5,178.5 C 482.833,178.5 484.167,178.5 485.5,178.5C 485.5,188.167 485.5,197.833 485.5,207.5C 484.5,207.5 483.5,207.5 482.5,207.5C 482.557,203.867 481.557,203.7 479.5,207C 472.231,208.398 468.565,205.398 468.5,198C 468.395,189.14 472.562,185.974 481,188.5C 481.498,185.183 481.665,181.85 481.5,178.5 Z"/></g>
<g><path style="opacity:1" fill="#748ada" d="M 474.5,190.5 C 476.792,190.244 478.959,190.577 481,191.5C 481.667,195.167 481.667,198.833 481,202.5C 478.333,205.167 475.667,205.167 473,202.5C 471.994,198.198 472.494,194.198 474.5,190.5 Z"/></g>
<g><path style="opacity:1" fill="#eaedf9" d="M 387.5,178.5 C 391.138,177.737 392.638,179.07 392,182.5C 387.415,184.413 385.915,183.079 387.5,178.5 Z"/></g>
<g><path style="opacity:1" fill="#f1f3fb" d="M 328.5,178.5 C 329.833,178.5 331.167,178.5 332.5,178.5C 332.177,182.226 332.511,185.893 333.5,189.5C 337.642,186.593 341.476,186.926 345,190.5C 345.499,196.157 345.666,201.824 345.5,207.5C 344.167,207.5 342.833,207.5 341.5,207.5C 341.666,202.156 341.499,196.823 341,191.5C 338.167,190.13 335.5,190.464 333,192.5C 332.501,197.489 332.334,202.489 332.5,207.5C 331.167,207.5 329.833,207.5 328.5,207.5C 328.5,197.833 328.5,188.167 328.5,178.5 Z"/></g>
<g><path style="opacity:1" fill="#f8f9fd" d="M 305.5,178.5 C 309.161,178.35 310.161,179.85 308.5,183C 304.707,183.487 303.707,181.987 305.5,178.5 Z"/></g>
<g><path style="opacity:1" fill="#f0f2fb" d="M 236.5,178.5 C 237.833,178.5 239.167,178.5 240.5,178.5C 240.5,180.167 240.5,181.833 240.5,183.5C 236.065,184.078 234.732,182.411 236.5,178.5 Z"/></g>
<g><path style="opacity:1" fill="#fbfbfd" d="M 124.5,175.5 C 127.215,176.451 130.049,177.117 133,177.5C 145.369,173.704 152.702,178.371 155,191.5C 158.357,201.255 155.191,207.255 145.5,209.5C 141.501,207.931 141.501,206.098 145.5,204C 145.167,203.833 144.833,203.667 144.5,203.5C 137.138,207.432 129.805,207.432 122.5,203.5C 122.167,203.667 121.833,203.833 121.5,204C 125.343,205.818 125.343,207.652 121.5,209.5C 117.786,208.809 114.452,207.309 111.5,205C 109.442,194.899 111.776,185.899 118.5,178C 120.723,177.434 122.723,176.6 124.5,175.5 Z"/></g>
<g><path style="opacity:1" fill="#798edb" d="M 138.5,190.5 C 143.708,190.369 145.375,192.702 143.5,197.5C 136.789,198.788 135.123,196.455 138.5,190.5 Z"/></g>
<g><path style="opacity:1" fill="#768cdb" d="M 123.5,190.5 C 128.849,190.197 130.516,192.531 128.5,197.5C 126.647,198.76 124.814,198.76 123,197.5C 122.297,195.071 122.463,192.738 123.5,190.5 Z"/></g>
</svg>
