<?xml version="1.0" encoding="UTF-8"?>
<!DOCTYPE svg PUBLIC "-//W3C//DTD SVG 1.1//EN" "http://www.w3.org/Graphics/SVG/1.1/DTD/svg11.dtd">
<svg xmlns="http://www.w3.org/2000/svg" version="1.1" width="200px" height="200px" viewBox="0 0 400 437" style="shape-rendering:geometricPrecision; text-rendering:geometricPrecision; image-rendering:optimizeQuality; fill-rule:evenodd; clip-rule:evenodd" xmlns:xlink="http://www.w3.org/1999/xlink">
<g><path style="opacity:1" fill="#375a7f" d="M -0.5,-0.5 C 132.833,-0.5 266.167,-0.5 399.5,-0.5C 399.5,23.8333 399.5,48.1667 399.5,72.5C 378.167,72.5 356.833,72.5 335.5,72.5C 328.761,62.6989 322.261,52.6989 316,42.5C 314.604,40.4732 312.938,40.1398 311,41.5C 304.156,51.8619 297.323,62.1952 290.5,72.5C 193.5,72.5 96.5,72.5 -0.5,72.5C -0.5,48.1667 -0.5,23.8333 -0.5,-0.5 Z"/></g>
<g><path style="opacity:1" fill="#222222" d="M 6.5,12.5 C 19.8333,12.5 33.1667,12.5 46.5,12.5C 46.5,25.8333 46.5,39.1667 46.5,52.5C 33.1667,52.5 19.8333,52.5 6.5,52.5C 6.5,39.1667 6.5,25.8333 6.5,12.5 Z"/></g>
<g><path style="opacity:1" fill="#eeede5" d="M 213.5,18.5 C 215.39,18.2965 216.89,18.9632 218,20.5C 221.333,25.1667 224.667,29.8333 228,34.5C 228.499,29.1771 228.666,23.8437 228.5,18.5C 229.5,18.5 230.5,18.5 231.5,18.5C 231.5,25.8333 231.5,33.1667 231.5,40.5C 229.097,40.607 227.264,39.607 226,37.5C 223.385,33.2171 220.385,29.2171 217,25.5C 216.501,30.4889 216.334,35.4889 216.5,40.5C 215.5,40.5 214.5,40.5 213.5,40.5C 213.5,33.1667 213.5,25.8333 213.5,18.5 Z"/></g>
<g><path style="opacity:1" fill="#f0efec" d="M 133.5,18.5 C 135.857,18.3367 138.19,18.5034 140.5,19C 142.405,19.8261 142.739,20.9928 141.5,22.5C 138.255,19.4881 135.588,19.8214 133.5,23.5C 133.529,25.0293 134.196,26.196 135.5,27C 141.835,27.3202 144.335,30.4868 143,36.5C 142.5,38.3333 141.333,39.5 139.5,40C 136.833,40.6667 134.167,40.6667 131.5,40C 129.216,38.6371 129.049,37.1371 131,35.5C 134.823,39.7068 137.99,39.3735 140.5,34.5C 140.392,33.5581 140.059,32.7247 139.5,32C 130.187,30.4431 128.187,25.9431 133.5,18.5 Z"/></g>
<g><path style="opacity:1" fill="#ebeef2" d="M 302.5,24.5 C 308.319,23.3475 314.319,23.1808 320.5,24C 317.651,27.0162 314.651,29.8496 311.5,32.5C 308.48,29.811 305.48,27.1444 302.5,24.5 Z"/></g>
<g><path style="opacity:1" fill="#f0f1ed" d="M 82.5,24.5 C 91.8861,24.0706 95.0528,28.404 92,37.5C 87.1993,41.7492 82.866,41.4159 79,36.5C 78.3333,33.5 78.3333,30.5 79,27.5C 80.1451,26.3636 81.3117,25.3636 82.5,24.5 Z"/></g>
<g><path style="opacity:1" fill="#f2ede7" d="M 95.5,24.5 C 96.5,24.5 97.5,24.5 98.5,24.5C 98.3345,28.5138 98.5012,32.5138 99,36.5C 101,39.1667 103,39.1667 105,36.5C 105.499,32.5138 105.666,28.5138 105.5,24.5C 106.5,24.5 107.5,24.5 108.5,24.5C 108.5,29.8333 108.5,35.1667 108.5,40.5C 106.876,40.6399 105.71,39.9733 105,38.5C 102,41.1667 99,41.1667 96,38.5C 95.5008,33.8452 95.3342,29.1785 95.5,24.5 Z"/></g>
<g><path style="opacity:1" fill="#f4f4ed" d="M 112.5,24.5 C 114.124,24.3601 115.29,25.0267 116,26.5C 117.555,24.4848 119.389,24.1515 121.5,25.5C 118.921,25.9149 117.087,27.2482 116,29.5C 115.501,33.1516 115.335,36.8183 115.5,40.5C 114.5,40.5 113.5,40.5 112.5,40.5C 112.5,35.1667 112.5,29.8333 112.5,24.5 Z"/></g>
<g><path style="opacity:1" fill="#e3e5e3" d="M 147.5,19.5 C 148.5,19.5 149.5,19.5 150.5,19.5C 150.5,21.1667 150.5,22.8333 150.5,24.5C 155.833,25.1667 155.833,25.8333 150.5,26.5C 150.176,30.5546 150.509,34.5546 151.5,38.5C 153.936,37.1091 154.602,37.6091 153.5,40C 150.975,40.8959 148.808,40.3959 147,38.5C 147.018,33.9308 146.185,29.5975 144.5,25.5C 145.325,24.6143 146.325,24.281 147.5,24.5C 147.5,22.8333 147.5,21.1667 147.5,19.5 Z"/></g>
<g><path style="opacity:1" fill="#e8ebe9" d="M 238.5,24.5 C 241.97,23.8748 244.804,24.8748 247,27.5C 247.499,31.8206 247.666,36.1539 247.5,40.5C 245.876,40.6399 244.71,39.9733 244,38.5C 241,41.1667 238,41.1667 235,38.5C 234.175,36.2992 234.675,34.4659 236.5,33C 238.677,31.7978 241.011,31.2978 243.5,31.5C 243.584,26.3064 241.584,25.3064 237.5,28.5C 236.692,28.1924 236.025,27.6924 235.5,27C 236.571,26.1482 237.571,25.3149 238.5,24.5 Z"/></g>
<g><path style="opacity:1" fill="#dcdfe0" d="M 250.5,24.5 C 252.124,24.3601 253.29,25.0267 254,26.5C 256.667,23.8333 259.333,23.8333 262,26.5C 266.118,23.4079 269.451,24.0745 272,28.5C 272.499,32.4862 272.666,36.4862 272.5,40.5C 271.167,40.5 269.833,40.5 268.5,40.5C 268.666,36.1539 268.499,31.8206 268,27.5C 266.667,26.1667 265.333,26.1667 264,27.5C 263.501,31.8206 263.334,36.1539 263.5,40.5C 262.167,40.5 260.833,40.5 259.5,40.5C 259.666,36.1539 259.499,31.8206 259,27.5C 257.887,26.2889 256.72,26.2889 255.5,27.5C 254.508,31.7828 254.174,36.1161 254.5,40.5C 253.167,40.5 251.833,40.5 250.5,40.5C 250.5,35.1667 250.5,29.8333 250.5,24.5 Z"/></g>
<g><path style="opacity:1" fill="#f3f3ed" d="M 188.5,24.5 C 190.71,25.5828 192.877,25.5828 195,24.5C 196.812,24.4934 198.312,25.16 199.5,26.5C 203.17,23.5337 206.337,23.867 209,27.5C 209.499,31.8206 209.666,36.1539 209.5,40.5C 208.5,40.5 207.5,40.5 206.5,40.5C 206.826,36.1161 206.492,31.7828 205.5,27.5C 203.694,26.1413 202.194,26.4746 201,28.5C 200.501,32.4862 200.334,36.4862 200.5,40.5C 199.5,40.5 198.5,40.5 197.5,40.5C 197.666,36.1539 197.499,31.8206 197,27.5C 195.062,26.1398 193.396,26.4732 192,28.5C 191.501,32.4862 191.334,36.4862 191.5,40.5C 190.5,40.5 189.5,40.5 188.5,40.5C 188.5,35.1667 188.5,29.8333 188.5,24.5 Z"/></g>
<g><path style="opacity:1" fill="#45638a" d="M 83.5,26.5 C 85.7224,26.178 87.5557,26.8446 89,28.5C 90.0037,31.9926 89.5037,35.1592 87.5,38C 85.2992,38.8249 83.4659,38.3249 82,36.5C 81.037,32.8513 81.537,29.518 83.5,26.5 Z"/></g>
<g><path style="opacity:1" fill="#f1f5f5" d="M 175.5,24.5 C 178.685,24.0196 181.519,24.6863 184,26.5C 184.828,31.202 184.662,35.8687 183.5,40.5C 182.808,39.9747 182.308,39.3081 182,38.5C 178.925,41.0594 175.925,41.0594 173,38.5C 172.797,32.8875 175.63,30.5541 181.5,31.5C 181.317,26.097 178.984,25.097 174.5,28.5C 174.167,28.1667 173.833,27.8333 173.5,27.5C 174.193,26.4822 174.859,25.4822 175.5,24.5 Z"/></g>
<g><path style="opacity:1" fill="#f0f1ee" d="M 160.5,24.5 C 167.013,23.404 170.346,26.0706 170.5,32.5C 166.833,32.5 163.167,32.5 159.5,32.5C 160.451,38.452 163.451,39.7854 168.5,36.5C 168.833,37 169.167,37.5 169.5,38C 164.932,41.6348 160.765,41.1348 157,36.5C 155.593,31.5994 156.76,27.5994 160.5,24.5 Z"/></g>
<g><path style="opacity:1" fill="#4a668c" d="M 162.5,26.5 C 164.912,26.244 166.579,27.244 167.5,29.5C 164.833,30.8333 162.167,30.8333 159.5,29.5C 160.34,28.265 161.34,27.265 162.5,26.5 Z"/></g>
<g><path style="opacity:1" fill="#f0f1ee" d="M 278.5,24.5 C 285.013,23.404 288.346,26.0706 288.5,32.5C 284.833,32.5 281.167,32.5 277.5,32.5C 278.451,38.452 281.451,39.7854 286.5,36.5C 286.833,37 287.167,37.5 287.5,38C 282.932,41.6348 278.765,41.1348 275,36.5C 273.593,31.5994 274.76,27.5994 278.5,24.5 Z"/></g>
<g><path style="opacity:1" fill="#4a668c" d="M 280.5,26.5 C 282.912,26.244 284.579,27.244 285.5,29.5C 282.833,30.8333 280.167,30.8333 277.5,29.5C 278.34,28.265 279.34,27.265 280.5,26.5 Z"/></g>
<g><path style="opacity:1" fill="#d1d1d1" d="M 24.5,21.5 C 30.8197,21.3196 33.3197,24.3196 32,30.5C 29.6481,32.674 28.4814,35.3407 28.5,38.5C 27.5,38.5 26.5,38.5 25.5,38.5C 25.4187,34.3274 26.752,30.6607 29.5,27.5C 26.9855,23.4484 25.3189,23.7817 24.5,28.5C 23.1667,28.5 21.8333,28.5 20.5,28.5C 20.5713,25.3477 21.9046,23.0144 24.5,21.5 Z"/></g>
<g><path style="opacity:1" fill="#eef2ef" d="M 60.5,19.5 C 61.6009,18.4017 62.9343,18.235 64.5,19C 66.3333,22.1667 68.1667,25.3333 70,28.5C 71.8333,25.5 73.6667,22.5 75.5,19.5C 76.723,18.3861 78.0563,18.2195 79.5,19C 76.8742,23.0838 74.3742,27.2505 72,31.5C 71.502,34.4816 71.3354,37.4816 71.5,40.5C 70.5,40.5 69.5,40.5 68.5,40.5C 68.8838,32.2788 66.2172,25.2788 60.5,19.5 Z"/></g>
<g><path style="opacity:1" fill="#557193" d="M 240.5,33.5 C 241.833,33.5 243.167,33.5 244.5,33.5C 243.745,38.5955 241.411,39.5955 237.5,36.5C 238.34,35.265 239.34,34.265 240.5,33.5 Z"/></g>
<g><path style="opacity:1" fill="#506990" d="M 177.5,33.5 C 178.833,33.5 180.167,33.5 181.5,33.5C 181.804,36.2327 180.637,37.8994 178,38.5C 174.928,37.119 174.761,35.4523 177.5,33.5 Z"/></g>
<g><path style="opacity:1" fill="#ed1c24" d="M 335.5,72.5 C 335.833,73.5 336.5,74.1667 337.5,74.5C 338.609,76.5544 339.609,78.7211 340.5,81C 340.355,81.772 340.022,82.4387 339.5,83C 335.514,83.4988 331.514,83.6655 327.5,83.5C 327.5,96.1667 327.5,108.833 327.5,121.5C 318.161,121.666 308.827,121.5 299.5,121C 299,120.5 298.5,120 298,119.5C 297.5,107.505 297.333,95.5046 297.5,83.5C 293.818,83.6653 290.152,83.4986 286.5,83C 285.978,82.4387 285.645,81.772 285.5,81C 286.906,79.022 287.906,76.8553 288.5,74.5C 289.5,74.1667 290.167,73.5 290.5,72.5C 297.323,62.1952 304.156,51.8619 311,41.5C 312.938,40.1398 314.604,40.4732 316,42.5C 322.261,52.6989 328.761,62.6989 335.5,72.5 Z"/></g>
<g><path style="opacity:1" fill="#d6d6d6" d="M 25.5,40.5 C 26.5,40.5 27.5,40.5 28.5,40.5C 28.5,41.5 28.5,42.5 28.5,43.5C 27.5,43.5 26.5,43.5 25.5,43.5C 25.5,42.5 25.5,41.5 25.5,40.5 Z"/></g>
<g><path style="opacity:1" fill="#434443" d="M -0.5,72.5 C 96.5,72.5 193.5,72.5 290.5,72.5C 290.167,73.5 289.5,74.1667 288.5,74.5C 192.167,74.5 95.8333,74.5 -0.5,74.5C -0.5,73.8333 -0.5,73.1667 -0.5,72.5 Z"/></g>
<g><path style="opacity:1" fill="#434444" d="M 335.5,72.5 C 356.833,72.5 378.167,72.5 399.5,72.5C 399.5,73.1667 399.5,73.8333 399.5,74.5C 378.833,74.5 358.167,74.5 337.5,74.5C 336.5,74.1667 335.833,73.5 335.5,72.5 Z"/></g>
<g><path style="opacity:1" fill="#feeeee" d="M 310.5,73.5 C 311.5,73.5 312.5,73.5 313.5,73.5C 313.5,78.1667 313.5,82.8333 313.5,87.5C 314.675,87.281 315.675,87.6143 316.5,88.5C 313.5,89.8333 310.5,89.8333 307.5,88.5C 308.325,87.6143 309.325,87.281 310.5,87.5C 310.665,83.8183 310.499,80.1516 310,76.5C 308.951,77.5171 307.784,77.6838 306.5,77C 307.731,75.5952 309.064,74.4286 310.5,73.5 Z"/></g>
<g><path style="opacity:1" fill="#222222" d="M -0.5,74.5 C 95.8333,74.5 192.167,74.5 288.5,74.5C 287.906,76.8553 286.906,79.022 285.5,81C 285.645,81.772 285.978,82.4387 286.5,83C 290.152,83.4986 293.818,83.6653 297.5,83.5C 297.333,95.5046 297.5,107.505 298,119.5C 298.5,120 299,120.5 299.5,121C 308.827,121.5 318.161,121.666 327.5,121.5C 327.5,108.833 327.5,96.1667 327.5,83.5C 331.514,83.6655 335.514,83.4988 339.5,83C 340.022,82.4387 340.355,81.772 340.5,81C 339.609,78.7211 338.609,76.5544 337.5,74.5C 358.167,74.5 378.833,74.5 399.5,74.5C 399.5,166.5 399.5,258.5 399.5,350.5C 266.167,350.5 132.833,350.5 -0.5,350.5C -0.5,258.5 -0.5,166.5 -0.5,74.5 Z"/></g>
<g><path style="opacity:1" fill="#f4f4f4" d="M 55.5,106.5 C 63.6138,105.121 67.4472,108.454 67,116.5C 61.9507,123.154 56.9507,123.154 52,116.5C 51.1822,112.469 52.3489,109.136 55.5,106.5 Z"/></g>
<g><path style="opacity:1" fill="#ececec" d="M 98.5,110.5 C 99.9778,110.238 101.311,110.571 102.5,111.5C 105.362,118.087 108.029,124.754 110.5,131.5C 109.635,132.583 108.635,132.749 107.5,132C 106.74,130.559 106.074,129.059 105.5,127.5C 102.232,126.513 98.8984,126.18 95.5,126.5C 95.5086,128.308 95.0086,129.975 94,131.5C 92.8173,132.731 91.6507,132.731 90.5,131.5C 93.4576,124.589 96.1243,117.589 98.5,110.5 Z"/></g>
<g><path style="opacity:1" fill="#e8e8e8" d="M 191.5,111.5 C 192.5,111.5 193.5,111.5 194.5,111.5C 194.5,113.167 194.5,114.833 194.5,116.5C 199.833,117.167 199.833,117.833 194.5,118.5C 194.5,122.167 194.5,125.833 194.5,129.5C 196.429,129.231 198.095,129.731 199.5,131C 197.12,132.757 194.62,132.923 192,131.5C 191.501,127.179 191.334,122.846 191.5,118.5C 187.5,117.833 187.5,117.167 191.5,116.5C 191.5,114.833 191.5,113.167 191.5,111.5 Z"/></g>
<g><path style="opacity:1" fill="#373737" d="M 99.5,115.5 C 100.376,115.369 101.043,115.702 101.5,116.5C 102.305,118.915 103.305,121.249 104.5,123.5C 101.894,124.652 99.2272,124.818 96.5,124C 98.1958,121.413 99.1958,118.579 99.5,115.5 Z"/></g>
<g><path style="opacity:1" fill="#e9e9e9" d="M 115.5,116.5 C 118.482,116.104 121.149,116.771 123.5,118.5C 114.953,117.9 112.62,121.567 116.5,129.5C 118.751,130.865 120.751,130.531 122.5,128.5C 124.946,129.983 124.612,131.149 121.5,132C 112.879,132.985 109.712,129.152 112,120.5C 113.032,118.973 114.199,117.64 115.5,116.5 Z"/></g>
<g><path style="opacity:1" fill="#e9e9e9" d="M 129.5,116.5 C 132.482,116.104 135.149,116.771 137.5,118.5C 128.953,117.9 126.62,121.567 130.5,129.5C 132.751,130.865 134.751,130.531 136.5,128.5C 138.946,129.983 138.612,131.149 135.5,132C 126.879,132.985 123.712,129.152 126,120.5C 127.032,118.973 128.199,117.64 129.5,116.5 Z"/></g>
<g><path style="opacity:1" fill="#e5e5e5" d="M 143.5,116.5 C 151.605,115.772 155.105,119.438 154,127.5C 151.928,132.143 148.428,133.643 143.5,132C 138.208,126.835 138.208,121.668 143.5,116.5 Z"/></g>
<g><path style="opacity:1" fill="#d7d7d7" d="M 156.5,116.5 C 157.833,116.5 159.167,116.5 160.5,116.5C 160.334,120.846 160.501,125.179 161,129.5C 162.458,130.747 163.958,130.747 165.5,129.5C 166.492,125.217 166.826,120.884 166.5,116.5C 167.833,116.5 169.167,116.5 170.5,116.5C 170.5,121.833 170.5,127.167 170.5,132.5C 168.876,132.64 167.71,131.973 167,130.5C 164,133.167 161,133.167 158,130.5C 156.621,125.964 156.121,121.297 156.5,116.5 Z"/></g>
<g><path style="opacity:1" fill="#d7d7d7" d="M 173.5,116.5 C 175.124,116.36 176.29,117.027 177,118.5C 180,115.833 183,115.833 186,118.5C 187.379,123.036 187.879,127.703 187.5,132.5C 186.167,132.5 184.833,132.5 183.5,132.5C 183.666,128.154 183.499,123.821 183,119.5C 181.062,118.14 179.396,118.473 178,120.5C 177.501,124.486 177.334,128.486 177.5,132.5C 176.167,132.5 174.833,132.5 173.5,132.5C 173.5,127.167 173.5,121.833 173.5,116.5 Z"/></g>
<g><path style="opacity:1" fill="#2a2a2a" d="M 145.5,118.5 C 147.39,118.297 148.89,118.963 150,120.5C 150.667,123.167 150.667,125.833 150,128.5C 145.56,131.362 143.06,130.029 142.5,124.5C 142.467,121.898 143.467,119.898 145.5,118.5 Z"/></g>
<g><path style="opacity:1" fill="#f8f8f8" d="M 52.5,122.5 C 56.6706,123.709 60.8373,123.709 65,122.5C 71.7537,124.336 74.087,128.669 72,135.5C 63.9124,136.648 55.7457,136.815 47.5,136C 45.0606,129.826 46.7273,125.326 52.5,122.5 Z"/></g>
<g><path style="opacity:1" fill="#dfbf17" d="M 55.5,167.5 C 63.1234,165.975 66.9567,168.975 67,176.5C 62.5217,184.078 57.5217,184.411 52,177.5C 51.1822,173.469 52.3489,170.136 55.5,167.5 Z"/></g>
<g><path style="opacity:1" fill="#f3f3f3" d="M 144.5,170.5 C 145.5,170.5 146.5,170.5 147.5,170.5C 147.5,178.167 147.5,185.833 147.5,193.5C 146.5,193.5 145.5,193.5 144.5,193.5C 144.5,185.833 144.5,178.167 144.5,170.5 Z"/></g>
<g><path style="opacity:1" fill="#e0e0e0" d="M 151.5,170.5 C 152.833,170.5 154.167,170.5 155.5,170.5C 155.5,171.833 155.5,173.167 155.5,174.5C 154.167,174.5 152.833,174.5 151.5,174.5C 151.5,173.167 151.5,171.833 151.5,170.5 Z"/></g>
<g><path style="opacity:1" fill="#e4e4e4" d="M 236.5,193.5 C 236.5,188.833 236.5,184.167 236.5,179.5C 234.167,179.5 231.833,179.5 229.5,179.5C 229.5,184.167 229.5,188.833 229.5,193.5C 228.5,193.5 227.5,193.5 226.5,193.5C 227.037,188.261 226.37,183.261 224.5,178.5C 226.131,176.78 227.297,174.78 228,172.5C 230.64,170.476 233.473,170.143 236.5,171.5C 234.892,172.318 233.225,172.985 231.5,173.5C 230.571,174.689 230.238,176.022 230.5,177.5C 233.5,177.5 236.5,177.5 239.5,177.5C 239.5,182.833 239.5,188.167 239.5,193.5C 238.5,193.5 237.5,193.5 236.5,193.5 Z"/></g>
<g><path style="opacity:1" fill="#f3f3f3" d="M 243.5,170.5 C 244.5,170.5 245.5,170.5 246.5,170.5C 246.5,178.167 246.5,185.833 246.5,193.5C 245.5,193.5 244.5,193.5 243.5,193.5C 243.5,185.833 243.5,178.167 243.5,170.5 Z"/></g>
<g><path style="opacity:1" fill="#e8e8e8" d="M 92.5,171.5 C 96.1817,171.335 99.8484,171.501 103.5,172C 107.292,174.053 108.458,177.219 107,181.5C 104.016,184.1 100.516,185.1 96.5,184.5C 96.5,187.5 96.5,190.5 96.5,193.5C 95.1667,193.5 93.8333,193.5 92.5,193.5C 92.5,186.167 92.5,178.833 92.5,171.5 Z"/></g>
<g><path style="opacity:1" fill="#f1f1f1" d="M 187.5,184.5 C 185.833,184.5 184.167,184.5 182.5,184.5C 182.5,187.5 182.5,190.5 182.5,193.5C 181.5,193.5 180.5,193.5 179.5,193.5C 179.5,186.167 179.5,178.833 179.5,171.5C 183.182,171.335 186.848,171.501 190.5,172C 194.883,174.918 195.55,178.585 192.5,183C 190.975,184.009 189.308,184.509 187.5,184.5 Z"/></g>
<g><path style="opacity:1" fill="#292929" d="M 96.5,173.5 C 100.367,172.775 103.034,174.108 104.5,177.5C 103.508,181.67 100.841,183.337 96.5,182.5C 96.5,179.5 96.5,176.5 96.5,173.5 Z"/></g>
<g><path style="opacity:1" fill="#8e8e8e" d="M 188.5,174.5 C 186.833,174.5 185.167,174.5 183.5,174.5C 183.5,177.167 183.5,179.833 183.5,182.5C 182.523,179.713 182.19,176.713 182.5,173.5C 184.735,173.205 186.735,173.539 188.5,174.5 Z"/></g>
<g><path style="opacity:1" fill="#2a2a2a" d="M 188.5,174.5 C 191.341,175.688 192.008,177.688 190.5,180.5C 188.49,182.171 186.157,182.838 183.5,182.5C 183.5,179.833 183.5,177.167 183.5,174.5C 185.167,174.5 186.833,174.5 188.5,174.5 Z"/></g>
<g><path style="opacity:1" fill="#ececec" d="M 110.5,177.5 C 111.5,177.5 112.5,177.5 113.5,177.5C 113.334,181.846 113.501,186.179 114,190.5C 116.155,191.683 118.155,191.35 120,189.5C 120.499,185.514 120.666,181.514 120.5,177.5C 121.5,177.5 122.5,177.5 123.5,177.5C 123.5,182.833 123.5,188.167 123.5,193.5C 121.876,193.64 120.71,192.973 120,191.5C 117,194.167 114,194.167 111,191.5C 110.501,186.845 110.334,182.179 110.5,177.5 Z"/></g>
<g><path style="opacity:1" fill="#e8e8e8" d="M 127.5,170.5 C 128.5,170.5 129.5,170.5 130.5,170.5C 130.187,173.247 130.52,175.914 131.5,178.5C 139.752,176.588 142.919,179.921 141,188.5C 140.215,190.286 139.049,191.786 137.5,193C 134.018,193 130.684,193.167 127.5,193.5C 127.5,185.833 127.5,178.167 127.5,170.5 Z"/></g>
<g><path style="opacity:1" fill="#ededed" d="M 151.5,177.5 C 152.5,177.5 153.5,177.5 154.5,177.5C 154.5,182.833 154.5,188.167 154.5,193.5C 153.5,193.5 152.5,193.5 151.5,193.5C 151.5,188.167 151.5,182.833 151.5,177.5 Z"/></g>
<g><path style="opacity:1" fill="#eaeaea" d="M 162.5,177.5 C 165.482,177.104 168.149,177.771 170.5,179.5C 168.204,179.653 165.871,179.987 163.5,180.5C 160.833,183.833 160.833,187.167 163.5,190.5C 165.751,191.865 167.751,191.531 169.5,189.5C 170.739,191.007 170.405,192.174 168.5,193C 159.879,193.985 156.712,190.152 159,181.5C 159.69,179.65 160.856,178.316 162.5,177.5 Z"/></g>
<g><path style="opacity:1" fill="#ececec" d="M 197.5,177.5 C 200.458,178.541 203.458,178.541 206.5,177.5C 206.5,178.5 206.5,179.5 206.5,180.5C 204.234,180.141 202.401,180.808 201,182.5C 200.501,186.152 200.335,189.818 200.5,193.5C 199.5,193.5 198.5,193.5 197.5,193.5C 197.5,188.167 197.5,182.833 197.5,177.5 Z"/></g>
<g><path style="opacity:1" fill="#e5e5e5" d="M 212.5,177.5 C 220.605,176.772 224.105,180.438 223,188.5C 220.928,193.143 217.428,194.643 212.5,193C 207.208,187.835 207.208,182.668 212.5,177.5 Z"/></g>
<g><path style="opacity:1" fill="#e9e9e9" d="M 253.5,177.5 C 260.175,176.186 263.509,178.853 263.5,185.5C 260.167,185.5 256.833,185.5 253.5,185.5C 253.943,191.661 256.777,192.995 262,189.5C 262.5,190 263,190.5 263.5,191C 255.981,195.573 251.314,193.573 249.5,185C 249.927,181.977 251.261,179.477 253.5,177.5 Z"/></g>
<g><path style="opacity:1" fill="#2b2b2b" d="M 132.5,179.5 C 134.144,179.286 135.644,179.62 137,180.5C 137.667,183.5 137.667,186.5 137,189.5C 132.833,192.499 130.667,191.332 130.5,186C 130.338,183.498 131.005,181.331 132.5,179.5 Z"/></g>
<g><path style="opacity:1" fill="#2a2a2a" d="M 214.5,179.5 C 216.39,179.297 217.89,179.963 219,181.5C 219.667,184.167 219.667,186.833 219,189.5C 214.56,192.362 212.06,191.029 211.5,185.5C 211.467,182.898 212.467,180.898 214.5,179.5 Z"/></g>
<g><path style="opacity:1" fill="#939393" d="M 236.5,193.5 C 235.515,189.366 235.182,185.032 235.5,180.5C 233.833,180.5 232.167,180.5 230.5,180.5C 230.818,185.032 230.485,189.366 229.5,193.5C 229.5,188.833 229.5,184.167 229.5,179.5C 231.833,179.5 234.167,179.5 236.5,179.5C 236.5,184.167 236.5,188.833 236.5,193.5 Z"/></g>
<g><path style="opacity:1" fill="#2c2c2c" d="M 255.5,179.5 C 258.588,179.197 260.254,180.53 260.5,183.5C 258.076,183.808 255.743,183.474 253.5,182.5C 254.193,181.482 254.859,180.482 255.5,179.5 Z"/></g>
<g><path style="opacity:1" fill="#e2c116" d="M 52.5,183.5 C 56.6706,184.709 60.8373,184.709 65,183.5C 71.7537,185.336 74.087,189.669 72,196.5C 63.9124,197.648 55.7457,197.815 47.5,197C 45.0606,190.826 46.7273,186.326 52.5,183.5 Z"/></g>
<g><path style="opacity:1" fill="#8e8e8e" d="M 187.5,184.5 C 186.432,185.434 185.099,185.768 183.5,185.5C 183.806,188.385 183.473,191.052 182.5,193.5C 182.5,190.5 182.5,187.5 182.5,184.5C 184.167,184.5 185.833,184.5 187.5,184.5 Z"/></g>
<g><path style="opacity:1" fill="#fbfbfb" d="M 42.5,228.5 C 46.8333,228.5 51.1667,228.5 55.5,228.5C 55.5,231.5 55.5,234.5 55.5,237.5C 58.8333,237.5 62.1667,237.5 65.5,237.5C 64.0508,241.472 61.5508,244.806 58,247.5C 57.6667,249.167 57.3333,250.833 57,252.5C 55.6439,251.62 54.1439,251.286 52.5,251.5C 52.5,250.5 52.5,249.5 52.5,248.5C 51.5,248.5 50.5,248.5 49.5,248.5C 49.756,250.912 48.756,252.579 46.5,253.5C 48.7817,254.9 50.2817,254.234 51,251.5C 51.8505,254.612 53.0172,254.946 54.5,252.5C 57.8768,254.325 61.5435,254.992 65.5,254.5C 65.67,255.822 65.3366,256.989 64.5,258C 57.1742,258.5 49.8409,258.666 42.5,258.5C 42.5,248.5 42.5,238.5 42.5,228.5 Z"/></g>
<g><path style="opacity:1" fill="#f5f5f5" d="M 57.5,228.5 C 60.5628,230.051 63.2295,232.218 65.5,235C 62.854,235.497 60.1873,235.664 57.5,235.5C 57.5,233.167 57.5,230.833 57.5,228.5 Z"/></g>
<g><path style="opacity:1" fill="#ededed" d="M 146.5,231.5 C 147.5,231.5 148.5,231.5 149.5,231.5C 149.5,239.167 149.5,246.833 149.5,254.5C 148.5,254.5 147.5,254.5 146.5,254.5C 146.5,246.833 146.5,239.167 146.5,231.5 Z"/></g>
<g><path style="opacity:1" fill="#eaeaea" d="M 153.5,231.5 C 155.346,231.222 156.68,231.889 157.5,233.5C 156.68,235.111 155.346,235.778 153.5,235.5C 153.5,234.167 153.5,232.833 153.5,231.5 Z"/></g>
<g><path style="opacity:1" fill="#e0e0e0" d="M 201.5,231.5 C 202.833,231.5 204.167,231.5 205.5,231.5C 205.5,232.833 205.5,234.167 205.5,235.5C 204.167,235.5 202.833,235.5 201.5,235.5C 201.5,234.167 201.5,232.833 201.5,231.5 Z"/></g>
<g><path style="opacity:1" fill="#ececec" d="M 98.5,232.5 C 99.9778,232.238 101.311,232.571 102.5,233.5C 105.362,240.087 108.029,246.754 110.5,253.5C 109.635,254.583 108.635,254.749 107.5,254C 106.74,252.559 106.074,251.059 105.5,249.5C 102.232,248.513 98.8984,248.18 95.5,248.5C 95.5086,250.308 95.0086,251.975 94,253.5C 92.8173,254.731 91.6507,254.731 90.5,253.5C 93.4576,246.589 96.1243,239.589 98.5,232.5 Z"/></g>
<g><path style="opacity:1" fill="#e9e9e9" d="M 191.5,233.5 C 192.5,233.5 193.5,233.5 194.5,233.5C 194.5,235.167 194.5,236.833 194.5,238.5C 199.833,239.167 199.833,239.833 194.5,240.5C 194.5,244.167 194.5,247.833 194.5,251.5C 199.623,251.899 199.79,252.899 195,254.5C 193.893,254.415 192.893,254.081 192,253.5C 191.501,249.179 191.334,244.846 191.5,240.5C 187.5,239.833 187.5,239.167 191.5,238.5C 191.5,236.833 191.5,235.167 191.5,233.5 Z"/></g>
<g><path style="opacity:1" fill="#e7e7e7" d="M 71.5,235.5 C 75.485,235.629 76.8183,237.463 75.5,241C 71.9652,240.645 70.6318,238.812 71.5,235.5 Z"/></g>
<g><path style="opacity:1" fill="#373737" d="M 99.5,237.5 C 100.376,237.369 101.043,237.702 101.5,238.5C 102.305,240.915 103.305,243.249 104.5,245.5C 101.894,246.652 99.2272,246.818 96.5,246C 98.1958,243.413 99.1958,240.579 99.5,237.5 Z"/></g>
<g><path style="opacity:1" fill="#e8e8e8" d="M 112.5,238.5 C 116.079,238.92 119.746,239.086 123.5,239C 127.699,244.281 127.366,249.281 122.5,254C 120.231,254.758 118.064,254.591 116,253.5C 115.505,255.473 115.338,257.473 115.5,259.5C 114.5,259.5 113.5,259.5 112.5,259.5C 112.5,252.5 112.5,245.5 112.5,238.5 Z"/></g>
<g><path style="opacity:1" fill="#e7e7e7" d="M 129.5,238.5 C 133.132,238.72 136.799,239.053 140.5,239.5C 144.724,244.655 144.39,249.488 139.5,254C 137.231,254.758 135.064,254.591 133,253.5C 132.505,255.473 132.338,257.473 132.5,259.5C 131.5,259.5 130.5,259.5 129.5,259.5C 129.5,252.5 129.5,245.5 129.5,238.5 Z"/></g>
<g><path style="opacity:1" fill="#f3f3f3" d="M 153.5,238.5 C 154.5,238.5 155.5,238.5 156.5,238.5C 156.5,243.833 156.5,249.167 156.5,254.5C 155.5,254.5 154.5,254.5 153.5,254.5C 153.5,249.167 153.5,243.833 153.5,238.5 Z"/></g>
<g><path style="opacity:1" fill="#e3e3e3" d="M 163.5,238.5 C 166.807,238.063 169.807,238.73 172.5,240.5C 170.925,241.446 169.258,241.446 167.5,240.5C 165.971,240.529 164.804,241.196 164,242.5C 163.333,245.167 163.333,247.833 164,250.5C 166.333,253.167 168.667,253.167 171,250.5C 172.824,251.749 172.657,252.915 170.5,254C 162.385,255.218 158.885,251.718 160,243.5C 160.997,241.677 162.164,240.01 163.5,238.5 Z"/></g>
<g><path style="opacity:1" fill="#eaeaea" d="M 177.5,238.5 C 180.482,238.104 183.149,238.771 185.5,240.5C 186.443,245.1 186.777,249.767 186.5,254.5C 182.676,254.326 178.842,253.993 175,253.5C 173.817,246.963 176.65,244.297 183.5,245.5C 183.22,240.169 180.887,239.169 176.5,242.5C 176.167,242 175.833,241.5 175.5,241C 176.056,239.989 176.722,239.156 177.5,238.5 Z"/></g>
<g><path style="opacity:1" fill="#ededed" d="M 201.5,238.5 C 202.5,238.5 203.5,238.5 204.5,238.5C 204.5,243.833 204.5,249.167 204.5,254.5C 203.5,254.5 202.5,254.5 201.5,254.5C 201.5,249.167 201.5,243.833 201.5,238.5 Z"/></g>
<g><path style="opacity:1" fill="#e6e6e6" d="M 211.5,238.5 C 222.182,238.347 225.182,243.18 220.5,253C 211.457,256.292 207.29,253.126 208,243.5C 208.997,241.677 210.164,240.01 211.5,238.5 Z"/></g>
<g><path style="opacity:1" fill="#ececec" d="M 225.5,238.5 C 227.124,238.36 228.29,239.027 229,240.5C 232,237.833 235,237.833 238,240.5C 238.499,245.155 238.666,249.821 238.5,254.5C 237.5,254.5 236.5,254.5 235.5,254.5C 235.666,250.154 235.499,245.821 235,241.5C 232.845,240.317 230.845,240.65 229,242.5C 228.501,246.486 228.334,250.486 228.5,254.5C 227.5,254.5 226.5,254.5 225.5,254.5C 225.5,249.167 225.5,243.833 225.5,238.5 Z"/></g>
<g><path style="opacity:1" fill="#e9e9e9" d="M 244.5,238.5 C 246.527,238.338 248.527,238.505 250.5,239C 250.957,239.414 251.291,239.914 251.5,240.5C 249.657,240.755 247.657,240.922 245.5,241C 245.043,241.414 244.709,241.914 244.5,242.5C 246.705,244.526 249.205,246.192 252,247.5C 252.422,253.563 249.589,255.73 243.5,254C 241.595,253.174 241.261,252.007 242.5,250.5C 245.237,253.303 247.571,253.136 249.5,250C 246.914,248.348 244.414,246.515 242,244.5C 241.034,241.66 241.867,239.66 244.5,238.5 Z"/></g>
<g><path style="opacity:1" fill="#ededed" d="M 67.5,239.5 C 70.0842,239.569 72.0842,240.735 73.5,243C 70.5,246 67.5,249 64.5,252C 62.8659,252.494 61.1992,252.66 59.5,252.5C 59.3398,250.801 59.5065,249.134 60,247.5C 62.705,244.964 65.205,242.297 67.5,239.5 Z"/></g>
<g><path style="opacity:1" fill="#2b2b2b" d="M 117.5,240.5 C 119.144,240.286 120.644,240.62 122,241.5C 122.667,244.5 122.667,247.5 122,250.5C 117.833,253.499 115.667,252.332 115.5,247C 115.338,244.498 116.005,242.331 117.5,240.5 Z"/></g>
<g><path style="opacity:1" fill="#282828" d="M 134.5,240.5 C 136.39,240.297 137.89,240.963 139,242.5C 139.667,245.167 139.667,247.833 139,250.5C 134.833,253.499 132.667,252.332 132.5,247C 132.338,244.498 133.005,242.331 134.5,240.5 Z"/></g>
<g><path style="opacity:1" fill="#2b2b2b" d="M 213.5,240.5 C 218.805,241.077 220.638,244.077 219,249.5C 217.174,253.037 214.84,253.371 212,250.5C 211.037,246.851 211.537,243.518 213.5,240.5 Z"/></g>
<g><path style="opacity:1" fill="#313131" d="M 179.5,247.5 C 180.833,247.5 182.167,247.5 183.5,247.5C 183.707,250.127 182.54,251.793 180,252.5C 176.928,251.119 176.761,249.452 179.5,247.5 Z"/></g>
<g><path style="opacity:1" fill="#f4f4f4" d="M 48.5,312.5 C 51.978,314.33 54.3114,313.33 55.5,309.5C 57.957,306.778 60.957,304.778 64.5,303.5C 66.2038,297.368 63.8705,294.868 57.5,296C 55.4311,299.415 53.0978,302.582 50.5,305.5C 49.8333,305.5 49.5,305.833 49.5,306.5C 39.0643,304.785 37.731,300.285 45.5,293C 56.1955,287.008 64.3621,289.508 70,300.5C 70.3305,314.494 63.4972,320.327 49.5,318C 45.149,315.884 42.8157,312.718 42.5,308.5C 45.225,308.937 47.225,310.27 48.5,312.5 Z"/></g>
<g><path style="opacity:1" fill="#f3f3f3" d="M 121.5,292.5 C 123.604,292.201 125.604,292.534 127.5,293.5C 123.78,293.887 121.78,295.887 121.5,299.5C 124.5,299.5 127.5,299.5 130.5,299.5C 130.5,304.833 130.5,310.167 130.5,315.5C 129.5,315.5 128.5,315.5 127.5,315.5C 127.5,310.833 127.5,306.167 127.5,301.5C 125.5,301.5 123.5,301.5 121.5,301.5C 121.5,306.167 121.5,310.833 121.5,315.5C 120.5,315.5 119.5,315.5 118.5,315.5C 118.5,310.833 118.5,306.167 118.5,301.5C 116.167,301.5 113.833,301.5 111.5,301.5C 111.5,306.167 111.5,310.833 111.5,315.5C 110.5,315.5 109.5,315.5 108.5,315.5C 108.5,310.833 108.5,306.167 108.5,301.5C 104.5,300.833 104.5,300.167 108.5,299.5C 108.369,294.291 110.703,292.625 115.5,294.5C 112.658,295.004 111.325,296.671 111.5,299.5C 113.833,299.5 116.167,299.5 118.5,299.5C 118.15,296.547 119.15,294.213 121.5,292.5 Z"/></g>
<g><path style="opacity:1" fill="#ebebeb" d="M 149.5,292.5 C 150.5,292.5 151.5,292.5 152.5,292.5C 152.5,293.833 152.5,295.167 152.5,296.5C 149.046,296.733 148.046,295.4 149.5,292.5 Z"/></g>
<g><path style="opacity:1" fill="#ededed" d="M 172.5,292.5 C 173.5,292.5 174.5,292.5 175.5,292.5C 175.5,300.167 175.5,307.833 175.5,315.5C 174.5,315.5 173.5,315.5 172.5,315.5C 172.5,307.833 172.5,300.167 172.5,292.5 Z"/></g>
<g><path style="opacity:1" fill="#e7e7e7" d="M 89.5,293.5 C 101.044,292.208 105.877,297.208 104,308.5C 101.037,314.561 96.2034,316.728 89.5,315C 80.2224,307.798 80.2224,300.631 89.5,293.5 Z"/></g>
<g><path style="opacity:1" fill="#e4e4e4" d="M 188.5,293.5 C 190.857,293.337 193.19,293.503 195.5,294C 197.405,294.826 197.739,295.993 196.5,297.5C 190.956,294.095 188.623,295.428 189.5,301.5C 192.914,302.286 195.747,303.953 198,306.5C 198.305,314.46 194.472,317.293 186.5,315C 184.441,313.815 184.274,312.648 186,311.5C 192.094,315.053 194.594,313.553 193.5,307C 184.16,304.871 182.493,300.371 188.5,293.5 Z"/></g>
<g><path style="opacity:1" fill="#eaeaea" d="M 279.5,293.5 C 283.584,293.043 287.417,293.71 291,295.5C 291.591,296.483 291.257,297.15 290,297.5C 282.494,293.67 277.994,295.837 276.5,304C 277.152,312.331 281.486,315.165 289.5,312.5C 289.5,310.5 289.5,308.5 289.5,306.5C 288.022,306.762 286.689,306.429 285.5,305.5C 287.743,304.526 290.076,304.192 292.5,304.5C 292.784,307.777 292.451,310.943 291.5,314C 281.284,318.226 274.951,315.059 272.5,304.5C 273.092,299.633 275.425,295.966 279.5,293.5 Z"/></g>
<g><path style="opacity:1" fill="#ebebeb" d="M 209.5,301.5 C 207.833,301.5 206.167,301.5 204.5,301.5C 204.185,305.371 204.518,309.038 205.5,312.5C 210.623,312.899 210.79,313.899 206,315.5C 204.289,315.561 202.956,314.894 202,313.5C 202.018,308.931 201.185,304.597 199.5,300.5C 200.325,299.614 201.325,299.281 202.5,299.5C 203.167,292.833 203.833,292.833 204.5,299.5C 206.781,299.077 208.448,299.744 209.5,301.5 Z"/></g>
<g><path style="opacity:1" fill="#272727" d="M 91.5,295.5 C 100.546,296.928 103.213,301.928 99.5,310.5C 91.8225,315.328 87.4892,313.162 86.5,304C 86.5251,300.105 88.1917,297.272 91.5,295.5 Z"/></g>
<g><path style="opacity:1" fill="#323232" d="M 55.5,309.5 C 53.8089,308.136 52.1423,306.803 50.5,305.5C 53.0978,302.582 55.4311,299.415 57.5,296C 63.8705,294.868 66.2038,297.368 64.5,303.5C 60.957,304.778 57.957,306.778 55.5,309.5 Z"/></g>
<g><path style="opacity:1" fill="#c0c0c0" d="M 58.5,296.5 C 62.9791,296.898 64.3124,299.231 62.5,303.5C 59.2083,305.177 57.2083,304.177 56.5,300.5C 56.7517,298.927 57.4183,297.594 58.5,296.5 Z"/></g>
<g><path style="opacity:1" fill="#272727" d="M 58.5,298.5 C 59.8333,298.5 61.1667,298.5 62.5,298.5C 62.5,299.833 62.5,301.167 62.5,302.5C 58.56,303.234 57.2266,301.901 58.5,298.5 Z"/></g>
<g><path style="opacity:1" fill="#e2e2e2" d="M 137.5,299.5 C 140.807,299.063 143.807,299.73 146.5,301.5C 144.716,302.606 142.882,302.606 141,301.5C 139.739,301.759 138.739,302.426 138,303.5C 137.333,306.167 137.333,308.833 138,311.5C 140.244,313.994 142.577,313.994 145,311.5C 146.824,312.749 146.657,313.915 144.5,315C 136.385,316.218 132.885,312.718 134,304.5C 134.997,302.677 136.164,301.01 137.5,299.5 Z"/></g>
<g><path style="opacity:1" fill="#ededed" d="M 149.5,299.5 C 150.5,299.5 151.5,299.5 152.5,299.5C 152.5,304.833 152.5,310.167 152.5,315.5C 151.5,315.5 150.5,315.5 149.5,315.5C 149.5,310.167 149.5,304.833 149.5,299.5 Z"/></g>
<g><path style="opacity:1" fill="#e1e1e1" d="M 158.5,299.5 C 161.685,299.02 164.519,299.686 167,301.5C 168.379,306.036 168.879,310.703 168.5,315.5C 166.876,315.64 165.71,314.973 165,313.5C 162,316.167 159,316.167 156,313.5C 155.175,311.299 155.675,309.466 157.5,308C 159.677,306.798 162.011,306.298 164.5,306.5C 164.426,301.194 162.259,300.194 158,303.5C 157.5,303.167 157,302.833 156.5,302.5C 157.193,301.482 157.859,300.482 158.5,299.5 Z"/></g>
<g><path style="opacity:1" fill="#ececec" d="M 215.5,299.5 C 221.495,298.828 224.829,301.495 225.5,307.5C 221.833,307.5 218.167,307.5 214.5,307.5C 215.393,313.446 218.393,314.779 223.5,311.5C 223.833,312 224.167,312.5 224.5,313C 220.904,316.168 217.071,316.335 213,313.5C 210.425,308.034 211.258,303.367 215.5,299.5 Z"/></g>
<g><path style="opacity:1" fill="#eaeaea" d="M 230.5,299.5 C 233.482,299.104 236.149,299.771 238.5,301.5C 239.443,306.1 239.777,310.767 239.5,315.5C 235.676,315.326 231.842,314.993 228,314.5C 226.817,307.963 229.65,305.297 236.5,306.5C 236.22,301.169 233.887,300.169 229.5,303.5C 229.167,303 228.833,302.5 228.5,302C 229.056,300.989 229.722,300.156 230.5,299.5 Z"/></g>
<g><path style="opacity:1" fill="#eeeeee" d="M 243.5,299.5 C 245.71,300.583 247.877,300.583 250,299.5C 251.812,299.493 253.312,300.16 254.5,301.5C 257.995,298.632 261.162,298.965 264,302.5C 264.499,306.821 264.666,311.154 264.5,315.5C 263.5,315.5 262.5,315.5 261.5,315.5C 261.666,311.486 261.499,307.486 261,303.5C 259.216,300.997 257.549,300.997 256,303.5C 255.501,307.486 255.334,311.486 255.5,315.5C 254.5,315.5 253.5,315.5 252.5,315.5C 252.666,311.486 252.499,307.486 252,303.5C 250.333,300.833 248.667,300.833 247,303.5C 246.501,307.486 246.334,311.486 246.5,315.5C 245.5,315.5 244.5,315.5 243.5,315.5C 243.5,310.167 243.5,304.833 243.5,299.5 Z"/></g>
<g><path style="opacity:1" fill="#e9e9e9" d="M 295.5,299.5 C 297.124,299.36 298.29,300.027 299,301.5C 300.884,299.424 303.051,299.09 305.5,300.5C 302.834,301.039 300.667,302.372 299,304.5C 298.501,308.152 298.335,311.818 298.5,315.5C 297.5,315.5 296.5,315.5 295.5,315.5C 295.5,310.167 295.5,304.833 295.5,299.5 Z"/></g>
<g><path style="opacity:1" fill="#e5e5e5" d="M 310.5,299.5 C 319.32,298.794 322.82,302.794 321,311.5C 318.442,315.212 314.942,316.378 310.5,315C 305.221,309.836 305.221,304.669 310.5,299.5 Z"/></g>
<g><path style="opacity:1" fill="#ececec" d="M 324.5,299.5 C 325.5,299.5 326.5,299.5 327.5,299.5C 327.334,303.846 327.501,308.179 328,312.5C 330.155,313.683 332.155,313.35 334,311.5C 334.499,307.514 334.666,303.514 334.5,299.5C 335.5,299.5 336.5,299.5 337.5,299.5C 337.5,304.833 337.5,310.167 337.5,315.5C 335.876,315.64 334.71,314.973 334,313.5C 331,316.167 328,316.167 325,313.5C 324.501,308.845 324.334,304.179 324.5,299.5 Z"/></g>
<g><path style="opacity:1" fill="#e7e7e7" d="M 341.5,299.5 C 345.132,299.72 348.799,300.053 352.5,300.5C 356.724,305.655 356.39,310.488 351.5,315C 349.231,315.758 347.064,315.591 345,314.5C 344.505,316.473 344.338,318.473 344.5,320.5C 343.5,320.5 342.5,320.5 341.5,320.5C 341.5,313.5 341.5,306.5 341.5,299.5 Z"/></g>
<g><path style="opacity:1" fill="#747474" d="M 209.5,301.5 C 208.432,302.434 207.099,302.768 205.5,302.5C 205.5,305.833 205.5,309.167 205.5,312.5C 204.518,309.038 204.185,305.371 204.5,301.5C 206.167,301.5 207.833,301.5 209.5,301.5 Z"/></g>
<g><path style="opacity:1" fill="#353535" d="M 216.5,301.5 C 219.278,301.022 221.278,302.022 222.5,304.5C 219.833,305.833 217.167,305.833 214.5,304.5C 215.193,303.482 215.859,302.482 216.5,301.5 Z"/></g>
<g><path style="opacity:1" fill="#292929" d="M 312.5,301.5 C 316.251,301.418 318.251,303.251 318.5,307C 318.191,312.895 315.691,314.395 311,311.5C 310.037,307.851 310.537,304.518 312.5,301.5 Z"/></g>
<g><path style="opacity:1" fill="#282828" d="M 346.5,301.5 C 348.39,301.297 349.89,301.963 351,303.5C 351.667,306.167 351.667,308.833 351,311.5C 346.833,314.499 344.667,313.332 344.5,308C 344.338,305.498 345.005,303.331 346.5,301.5 Z"/></g>
<g><path style="opacity:1" fill="#ababab" d="M 50.5,305.5 C 52.1423,306.803 53.8089,308.136 55.5,309.5C 54.3114,313.33 51.978,314.33 48.5,312.5C 49.5676,311.566 50.901,311.232 52.5,311.5C 52.69,309.041 51.69,307.374 49.5,306.5C 49.5,305.833 49.8333,305.5 50.5,305.5 Z"/></g>
<g><path style="opacity:1" fill="#303030" d="M 162.5,308.5 C 163.586,308.62 164.253,309.287 164.5,310.5C 163.622,312.939 161.955,313.772 159.5,313C 158.549,312.282 158.383,311.449 159,310.5C 160.302,309.915 161.469,309.249 162.5,308.5 Z"/></g>
<g><path style="opacity:1" fill="#313131" d="M 232.5,308.5 C 233.833,308.5 235.167,308.5 236.5,308.5C 236.707,311.127 235.54,312.793 233,313.5C 229.928,312.119 229.761,310.452 232.5,308.5 Z"/></g>
<g><path style="opacity:1" fill="#434443" d="M -0.5,350.5 C 132.833,350.5 266.167,350.5 399.5,350.5C 399.5,351.167 399.5,351.833 399.5,352.5C 266.167,352.5 132.833,352.5 -0.5,352.5C -0.5,351.833 -0.5,351.167 -0.5,350.5 Z"/></g>
<g><path style="opacity:1" fill="#222222" d="M -0.5,352.5 C 132.833,352.5 266.167,352.5 399.5,352.5C 399.5,380.5 399.5,408.5 399.5,436.5C 266.167,436.5 132.833,436.5 -0.5,436.5C -0.5,408.5 -0.5,380.5 -0.5,352.5 Z"/></g>
<g><path style="opacity:1" fill="#ed1c24" d="M 235.5,379.5 C 236.822,379.33 237.989,379.663 239,380.5C 239.498,383.482 239.665,386.482 239.5,389.5C 252.171,389.333 264.838,389.5 277.5,390C 278.833,398 278.833,406 277.5,414C 264.838,414.5 252.171,414.667 239.5,414.5C 239.665,417.518 239.498,420.518 239,423.5C 238.439,424.022 237.772,424.355 237,424.5C 222.378,418.112 208.545,410.612 195.5,402C 195.645,401.228 195.978,400.561 196.5,400C 209.877,393.647 222.877,386.814 235.5,379.5 Z"/></g>
<g><path style="opacity:1" fill="#f0f0f0" d="M 48.5,387.5 C 50.8568,387.337 53.1902,387.503 55.5,388C 56.3366,389.011 56.67,390.178 56.5,391.5C 53.8806,391.232 51.3806,391.565 49,392.5C 48.5008,397.155 48.3342,401.821 48.5,406.5C 51.1667,406.5 53.8333,406.5 56.5,406.5C 56.5,407.833 56.5,409.167 56.5,410.5C 53.4816,410.665 50.4816,410.498 47.5,410C 46.3333,409.5 45.5,408.667 45,407.5C 44.3333,401.833 44.3333,396.167 45,390.5C 46.1451,389.364 47.3117,388.364 48.5,387.5 Z"/></g>
<g><path style="opacity:1" fill="#f6f6f6" d="M 52.5,395.5 C 55.5,395.5 58.5,395.5 61.5,395.5C 61.5,393.167 61.5,390.833 61.5,388.5C 61.8966,387.475 62.5632,387.308 63.5,388C 67.349,391.682 71.0156,395.515 74.5,399.5C 71.0009,404.347 66.6676,408.014 61.5,410.5C 61.5,408.167 61.5,405.833 61.5,403.5C 58.1667,403.5 54.8333,403.5 51.5,403.5C 51.1936,400.615 51.5269,397.948 52.5,395.5 Z"/></g>
<g><path style="opacity:1" fill="#e0e0e0" d="M 92.5,388.5 C 93.8333,388.5 95.1667,388.5 96.5,388.5C 96.5,394.833 96.5,401.167 96.5,407.5C 99.5,407.5 102.5,407.5 105.5,407.5C 105.5,408.5 105.5,409.5 105.5,410.5C 101.167,410.5 96.8333,410.5 92.5,410.5C 92.5,403.167 92.5,395.833 92.5,388.5 Z"/></g>
<g><path style="opacity:1" fill="#e9e9e9" d="M 173.5,389.5 C 174.5,389.5 175.5,389.5 176.5,389.5C 176.5,391.167 176.5,392.833 176.5,394.5C 181.833,395.167 181.833,395.833 176.5,396.5C 176.5,400.167 176.5,403.833 176.5,407.5C 181.623,407.899 181.79,408.899 177,410.5C 175.893,410.415 174.893,410.081 174,409.5C 173.501,405.179 173.334,400.846 173.5,396.5C 169.5,395.833 169.5,395.167 173.5,394.5C 173.5,392.833 173.5,391.167 173.5,389.5 Z"/></g>
<g><path style="opacity:1" fill="#929292" d="M 61.5,388.5 C 61.5,390.833 61.5,393.167 61.5,395.5C 58.5,395.5 55.5,395.5 52.5,395.5C 54.9479,394.527 57.6146,394.194 60.5,394.5C 60.2053,392.265 60.5386,390.265 61.5,388.5 Z"/></g>
<g><path style="opacity:1" fill="#e6e6e6" d="M 109.5,394.5 C 120.182,394.347 123.182,399.18 118.5,409C 109.457,412.292 105.29,409.126 106,399.5C 106.997,397.677 108.164,396.01 109.5,394.5 Z"/></g>
<g><path style="opacity:1" fill="#e6e6e6" d="M 141.5,394.5 C 152.182,394.347 155.182,399.18 150.5,409C 141.457,412.292 137.29,409.126 138,399.5C 138.997,397.677 140.164,396.01 141.5,394.5 Z"/></g>
<g><path style="opacity:1" fill="#efefef" d="M 155.5,394.5 C 156.5,394.5 157.5,394.5 158.5,394.5C 158.334,398.514 158.501,402.514 159,406.5C 160.916,409.033 162.916,409.033 165,406.5C 165.499,402.514 165.666,398.514 165.5,394.5C 166.5,394.5 167.5,394.5 168.5,394.5C 168.5,399.833 168.5,405.167 168.5,410.5C 164.676,410.326 160.842,409.993 157,409.5C 155.612,404.628 155.112,399.628 155.5,394.5 Z"/></g>
<g><path style="opacity:1" fill="#fef3f3" d="M 222.5,394.5 C 229.867,393.026 232.367,395.692 230,402.5C 228.167,404.333 226.333,406.167 224.5,408C 226.9,408.186 229.234,408.686 231.5,409.5C 228.167,410.833 224.833,410.833 221.5,409.5C 224.045,406.126 226.378,402.626 228.5,399C 228.355,398.228 228.022,397.561 227.5,397C 225.559,396.257 223.726,396.424 222,397.5C 221.53,396.423 221.697,395.423 222.5,394.5 Z"/></g>
<g><path style="opacity:1" fill="#2b2b2b" d="M 111.5,396.5 C 116.805,397.077 118.638,400.077 117,405.5C 115.174,409.037 112.84,409.371 110,406.5C 109.037,402.851 109.537,399.518 111.5,396.5 Z"/></g>
<g><path style="opacity:1" fill="#2b2b2b" d="M 143.5,396.5 C 148.805,397.077 150.638,400.077 149,405.5C 147.174,409.037 144.84,409.371 142,406.5C 141.037,402.851 141.537,399.518 143.5,396.5 Z"/></g>
<g><path style="opacity:1" fill="#eaeaea" d="M 125.5,394.5 C 129.348,394.24 133.015,394.906 136.5,396.5C 135.975,397.192 135.308,397.692 134.5,398C 135.876,400.54 135.21,402.54 132.5,404C 130.423,404.192 128.423,404.692 126.5,405.5C 129.497,406.248 132.497,406.915 135.5,407.5C 137.279,411.096 136.279,413.596 132.5,415C 129.084,415.893 125.917,415.393 123,413.5C 122.175,411.299 122.675,409.466 124.5,408C 124.574,405.224 124.241,402.391 123.5,399.5C 123.437,397.486 124.103,395.819 125.5,394.5 Z"/></g>
<g><path style="opacity:1" fill="#2e2e2e" d="M 127.5,396.5 C 132.041,396.815 133.041,398.649 130.5,402C 126.537,402.118 125.537,400.284 127.5,396.5 Z"/></g>
<g><path style="opacity:1" fill="#343434" d="M 126.5,408.5 C 128.527,408.338 130.527,408.505 132.5,409C 133.925,410.714 133.592,412.047 131.5,413C 126.991,414.126 125.325,412.626 126.5,408.5 Z"/></g>
</svg>
